<?xml version="1.0" standalone="no"?>
<!DOCTYPE svg PUBLIC "-//W3C//DTD SVG 20010904//EN"
 "http://www.w3.org/TR/2001/REC-SVG-20010904/DTD/svg10.dtd">
<svg version="1.0" xmlns="http://www.w3.org/2000/svg"
 width="1134.000000pt" height="1134.000000pt" viewBox="0 0 1134.000000 1134.000000"
 preserveAspectRatio="xMidYMid meet">
<metadata>
Created by potrace 1.14, written by Peter Selinger 2001-2017
</metadata>
<g transform="translate(0.000000,1134.000000) scale(0.100000,-0.100000)"
fill="#000000" stroke="none">
<path d="M3647 10584 c-1 -1 -49 -5 -107 -8 -92 -6 -166 -14 -275 -31 -424
-64 -880 -250 -1245 -508 -77 -55 -211 -160 -251 -197 -167 -157 -258 -254
-355 -375 -184 -230 -281 -394 -432 -726 -52 -116 -144 -419 -168 -559 -2 -14
-9 -47 -14 -75 -5 -27 -12 -72 -15 -100 -3 -27 -8 -59 -10 -70 -7 -33 -18
-234 -18 -330 -1 -158 17 -385 38 -497 3 -13 10 -50 16 -83 22 -123 95 -388
129 -470 4 -11 23 -56 40 -100 92 -227 219 -451 372 -655 l97 -129 -97 -130
c-238 -317 -409 -675 -501 -1046 -28 -112 -34 -142 -46 -205 -3 -14 -7 -36 -9
-50 -3 -14 -8 -49 -11 -79 -4 -30 -8 -63 -10 -73 -8 -41 -18 -239 -18 -353 1
-169 17 -363 43 -500 5 -27 12 -62 14 -77 43 -260 203 -676 359 -938 58 -97
188 -284 239 -345 9 -11 26 -31 37 -45 302 -365 730 -677 1171 -854 215 -86
493 -163 655 -181 33 -4 62 -9 65 -10 3 -2 37 -6 75 -10 39 -3 88 -8 110 -11
52 -7 400 -7 445 0 19 3 67 8 105 11 39 3 122 15 185 26 468 81 902 268 1283
552 l128 96 129 -97 c139 -104 288 -198 434 -271 94 -48 247 -114 341 -149 40
-15 252 -78 290 -87 17 -4 37 -8 45 -10 52 -13 224 -45 269 -50 30 -4 62 -8
71 -10 43 -8 229 -18 350 -17 257 0 494 30 737 92 431 112 787 291 1148 579
38 31 79 65 91 76 12 11 48 45 80 76 264 250 482 551 634 874 78 166 93 202
145 360 30 91 81 282 91 345 3 14 9 48 14 75 5 28 12 73 15 100 4 28 8 61 10
74 21 130 21 569 1 678 -3 11 -7 44 -11 74 -9 74 -44 257 -56 295 -5 17 -12
41 -14 54 -17 87 -90 296 -155 445 -91 208 -206 404 -345 590 l-94 126 78 102
c82 109 172 243 212 317 13 25 27 47 30 50 10 9 116 232 152 320 57 140 129
371 153 495 2 11 8 43 14 70 15 77 19 105 26 170 4 33 8 62 9 65 6 10 18 233
18 330 1 93 -10 293 -18 341 -2 13 -11 74 -20 134 -106 699 -474 1351 -1026
1817 -42 36 -91 75 -110 88 -19 13 -36 27 -39 31 -9 11 -212 144 -285 186
-313 181 -731 324 -1070 367 -97 13 -116 15 -218 22 -621 46 -1265 -115 -1797
-448 -94 -59 -231 -155 -267 -187 -68 -59 -53 -60 -145 11 -529 410 -1142 622
-1831 632 -59 1 -109 1 -110 0z m348 -537 c11 -3 45 -8 75 -11 321 -40 670
-164 963 -342 75 -46 221 -148 251 -175 8 -7 -3442 -3469 -3457 -3469 -7 0
-131 172 -178 247 -187 298 -313 668 -355 1038 -10 88 -11 382 -2 472 11 112
28 233 38 268 5 17 11 46 14 65 7 48 51 198 88 300 50 138 189 419 240 485 5
6 24 35 44 65 20 30 70 96 110 146 420 520 1037 851 1699 910 39 4 71 8 73 9
5 4 376 -4 397 -8z m3880 -7 c74 -9 172 -27 348 -65 102 -22 379 -130 502
-196 133 -71 136 -72 240 -143 279 -187 562 -483 730 -761 165 -274 297 -635
330 -904 4 -30 9 -63 11 -75 23 -108 22 -483 -1 -621 -6 -39 -13 -80 -21 -129
-3 -21 -8 -47 -10 -57 -4 -19 -6 -26 -19 -84 -49 -209 -163 -485 -283 -684
-66 -111 -181 -271 -194 -271 -10 0 -3453 3452 -3453 3462 0 22 235 180 400
268 168 89 451 190 635 225 98 19 219 36 295 41 50 4 91 7 93 9 7 6 319 -6
397 -15z m-470 -6100 c-951 -951 -1733 -1730 -1737 -1730 -4 0 -785 778 -1737
1730 l-1730 1730 1732 1733 1732 1734 1735 -1734 1735 -1733 -1730 -1730z
m-3843 -378 c950 -951 1728 -1731 1728 -1734 0 -10 -171 -133 -255 -183 -112
-68 -273 -147 -385 -191 -103 -40 -260 -89 -306 -97 -16 -3 -36 -8 -44 -11
-30 -12 -257 -47 -345 -53 -160 -12 -415 -6 -530 12 -16 2 -46 7 -65 10 -376
54 -775 223 -1091 463 -132 99 -157 121 -274 239 -320 321 -535 707 -645 1156
-35 140 -43 187 -57 332 -15 148 -8 494 12 590 3 11 7 37 10 58 40 286 187
668 357 927 56 84 149 210 157 210 2 0 782 -778 1733 -1728z m5999 1665 c395
-533 563 -1190 468 -1832 -46 -309 -149 -609 -302 -877 -19 -34 -178 -272
-186 -278 -3 -3 -26 -30 -51 -60 -336 -414 -824 -715 -1352 -836 -53 -12 -68
-15 -128 -25 -178 -29 -247 -34 -455 -32 -372 4 -699 79 -1033 239 -108 52
-304 167 -322 189 -7 8 -18 15 -25 15 -8 0 -15 3 -17 8 -1 4 -27 25 -55 46
-29 21 -53 41 -53 44 0 8 3452 3462 3460 3462 3 0 26 -28 51 -63z"/>
</g>
</svg>
