<?xml version="1.0" encoding="UTF-8"?>
<svg width="150px" height="150px" viewBox="0 0 150 150" version="1.1" xmlns="http://www.w3.org/2000/svg" xmlns:xlink="http://www.w3.org/1999/xlink">
    <title>Icon / Add-Product</title>
    <g id="Icon-/-Add-Product" stroke="none" stroke-width="1" fill="none" fill-rule="evenodd">
        <path d="M75,2.51677852 C35.0325503,2.51677852 2.51677852,35.0325503 2.51677852,75 C2.51677852,114.96745 35.0325503,147.483221 75,147.483221 C114.96745,147.483221 147.483221,114.96745 147.483221,75 C147.483221,35.0325503 114.96745,2.51677852 75,2.51677852 M75,150 C54.9669463,150 36.1328859,142.19849 21.967198,128.032802 C7.80151007,113.867114 -1.42108547e-14,95.0330537 -1.42108547e-14,75 C-1.42108547e-14,54.9669463 7.80151007,36.1326342 21.967198,21.9669463 C36.1328859,7.80151007 54.9669463,0 75,0 C95.0333054,0 113.867366,7.80151007 128.033054,21.9669463 C142.19849,36.1326342 150,54.9669463 150,75 C150,95.0330537 142.19849,113.867114 128.033054,128.032802 C113.867366,142.19849 95.0330537,150 75,150" id="Fill-1" fill="#07AD88"></path>
        <path d="M91.8192039,48.4315232 L91.4952968,48.4315232 L86.3235878,48.4315232 C83.3505054,48.4315232 80.3774229,48.4343243 77.4044405,48.4262156 C77.1637609,48.4255209 77.0911369,48.4911468 77.0935757,48.732142 C77.1047414,49.79026 77.1010402,50.8485781 77.0946381,51.9067961 C77.0935757,52.0732619 77.1289494,52.1449902 77.3136104,52.1440982 C78.5877315,52.1378874 79.8620526,52.1416889 81.1361736,52.141889 C83.0769149,52.1420891 85.0176563,52.1421891 86.9583976,52.141989 C88.5157122,52.1417889 90.0730268,52.1399882 91.6303415,52.1424892 C91.774089,52.1426893 91.8296073,52.1139779 91.827375,51.9465118 C91.8151025,51.0396535 91.8201042,50.1324952 91.8193039,49.2254369 C91.8190038,48.970236 91.8192039,48.7149352 91.8192039,48.4315232 L91.8192039,48.4315232 Z M74.6663356,58.2997216 C74.6801402,58.1775733 74.6955453,58.1040443 74.6954457,58.0306152 C74.6934446,55.8837672 74.6866423,53.7370191 74.6914439,51.5902711 C74.6919441,51.3636815 74.6333247,51.2915531 74.4004478,51.2939916 C73.335896,51.3056586 72.2710441,51.2996563 71.2063923,51.2985558 C69.8341388,51.2969552 68.4617853,51.2917531 67.0895318,51.2988559 C67.0286117,51.2991561 66.923577,51.400296 66.9156744,51.4639211 C66.890366,51.6691022 66.8982686,51.878685 66.8981686,52.0864671 C66.8977685,53.3840797 66.8989689,54.6816923 66.8989689,55.9793049 C66.8989689,56.6777808 66.8974684,57.3762568 66.8966675,58.0746326 C66.8964681,58.2335954 66.9490854,58.298421 67.1339465,58.2979208 C69.0983957,58.2913182 71.0628448,58.2974206 73.027294,58.2996215 C73.5670724,58.3002218 74.1067507,58.2997216 74.6663356,58.2997216 L74.6663356,58.2997216 Z M77.1221472,58.2764123 L100.390436,58.2764123 L100.390436,54.5965587 L77.1221472,54.5965587 L77.1221472,58.2764123 Z M75.0580651,73.8243544 C75.0685686,78.0396196 78.4241774,81.7134709 82.9727805,81.6500459 C87.0195178,81.5936236 90.4939659,78.3727512 90.5956996,74.0493433 C90.6993338,69.6445032 87.2970095,66.1166095 82.9361684,66.0548852 C78.6456506,65.9941612 75.1444936,69.3677939 75.0580651,73.8243544 L75.0580651,73.8243544 Z M107.739265,60.7441872 L57.97532,60.7441872 C58.0483442,60.9745782 58.1165667,61.1781587 58.1774868,61.3837399 C58.6997594,63.1448356 59.222032,64.9059313 59.7393029,66.6684275 C59.7842178,66.821588 59.8399362,66.9081222 60.0215962,66.9073274 C61.7289604,66.8994188 63.4363246,66.8985184 65.1436888,66.8977181 C67.0845302,66.8967177 69.0254716,66.8981183 70.9663129,66.8981183 C72.3653753,66.8981183 73.7645376,66.8998189 75.1636,66.8919158 C75.266734,66.8913156 75.3971771,66.8465979 75.4682006,66.7755698 C76.1416232,66.1019037 76.8728648,65.5099699 77.6964369,65.0225773 C78.8065038,64.3657179 79.9943963,63.9402498 81.2627154,63.7463732 C82.7631112,63.5169826 84.2425001,63.6085187 85.7070841,64.0433905 C87.3794367,64.5399867 88.8212132,65.3990261 90.0473183,66.6345141 C90.1681583,66.7561622 90.2714924,66.9037205 90.497167,66.90242 C92.0213707,66.8936165 93.5456744,66.9034204 95.0698781,66.9039206 C98.0600662,66.9052211 101.050054,66.9043207 104.040242,66.9043207 L105.904959,66.9043207 C106.516961,64.8491088 107.123461,62.8123042 107.739265,60.7441872 L107.739265,60.7441872 Z M60.5486704,69.3432842 C60.5794806,69.4578294 60.5990871,69.537661 60.6224948,69.6163921 C61.1348641,71.3445748 61.6476336,73.0726574 62.160503,74.8007401 C62.832325,77.0641342 63.5050473,79.3273283 64.1761691,81.5909225 C64.6834367,83.3022986 65.1923049,85.0132745 65.6902695,86.7273516 C65.7499892,86.9327327 65.8468212,87.004361 66.0546899,87.0039625 C69.1792224,86.9975583 72.3038549,86.9956576 75.4283875,86.9948573 C79.5028339,86.9938569 83.5772803,86.9946572 87.6518267,86.9946572 L99.4750338,86.9946572 C99.9312845,86.9946572 99.9308844,86.9943571 100.055526,86.5700895 C100.437152,85.2718766 100.816377,83.9729635 101.201904,82.6759511 C101.485798,81.7207738 101.780996,80.7689978 102.06569,79.8140205 C102.433311,78.5802332 102.79343,77.3440448 103.160852,76.1100573 C103.464352,75.0905546 103.774955,74.0731527 104.080256,73.0541501 C104.383456,72.0424505 104.684755,71.0302506 104.984554,70.0175506 C105.048976,69.8001647 105.103294,69.5796776 105.165814,69.3473858 L91.9897602,69.3473858 C93.0691169,71.6196835 93.3101966,73.9640096 92.7102983,76.3710604 C92.1082994,78.7870148 90.7980664,80.7746 88.7433875,82.1792549 C85.2565352,84.5631967 81.5772194,84.7617751 77.8584905,82.7708886 C75.4842059,81.4997865 73.9115862,79.4821895 73.1097212,76.9095732 C72.3075562,74.3359565 72.534031,71.8104588 73.6731074,69.3432842 L60.5486704,69.3432842 Z M64.4879722,58.2761122 C64.4879722,57.8347379 64.4879722,57.4048681 64.4879722,56.9749982 C64.4877721,55.6841883 64.4865717,54.3933784 64.4878721,53.1025685 C64.4888725,52.078664 64.4862716,51.0545594 64.4985757,50.030755 C64.505778,49.4259161 64.9370205,48.9380233 65.5381192,48.8852025 C66.0007721,48.8444864 66.4689268,48.8639941 66.9345806,48.8622934 C67.674125,48.8593923 68.4136694,48.8610929 69.1532138,48.8609929 C70.076919,48.8608928 71.0006243,48.8610929 71.9243295,48.8607928 C72.7806125,48.8603927 73.6367954,48.8564911 74.4930784,48.861293 C74.6521309,48.8621934 74.6904436,48.7958672 74.688543,48.6518103 C74.6827411,48.2022327 74.6840415,47.7523549 74.6873426,47.3025773 C74.6932445,46.4948582 75.1755039,46.0020635 75.9768687,46.0017634 C81.6453419,45.9994625 87.313815,45.9992624 92.9822882,46.0020635 C93.7469409,46.0024637 94.2461059,46.5088637 94.2481065,47.2767671 C94.2522079,48.8009692 94.2571095,50.3252713 94.2419045,51.8493734 C94.2393036,52.1066751 94.3189299,52.1461907 94.5484057,52.1453904 C96.8223572,52.1376873 99.0965087,52.1601962 101.37016,52.1316849 C102.300067,52.1200804 102.85205,52.6846034 102.834144,53.5860595 C102.804734,55.0659441 102.816638,56.546629 102.813337,58.0270138 C102.813137,58.108446 102.834044,58.1900782 102.848849,58.2991213 C103.265686,58.2991213 103.672621,58.2997216 104.079555,58.2989212 C105.15391,58.2969205 106.229266,58.2651079 107.30242,58.2993214 C108.582743,58.3401375 109.695011,59.2893125 109.948895,60.6118349 C110.035323,61.0617127 110.011416,61.5074888 109.882573,61.946062 C109.320287,63.8591177 108.762303,65.773474 108.190514,67.6836286 C107.587915,69.6964237 106.970311,71.7048171 106.361009,73.7156114 C105.650374,76.0612381 104.94204,78.4074649 104.231706,80.7531916 C103.552581,82.9962777 102.872256,85.2390637 102.192532,87.4820497 C102.091398,87.8156815 101.992866,88.1500136 101.888531,88.482745 C101.700869,89.0813815 101.304138,89.4080106 100.680532,89.4159137 C99.5074445,89.4308196 98.3340567,89.4199153 97.160769,89.4198152 C96.4209245,89.4197152 95.68108,89.4197152 94.9412356,89.4195151 C94.0090275,89.419315 93.0768195,89.419215 92.1446114,89.4187148 C91.4213724,89.4183146 90.6981334,89.416814 89.9748944,89.4170141 C88.7016737,89.4174143 87.4283529,89.4189149 86.1551322,89.4196151 C85.4151876,89.4200153 84.6754432,89.4201153 83.9354987,89.4196151 C82.9949879,89.4189149 82.0545771,89.4176143 81.1139663,89.4163138 C80.4073328,89.4153134 79.7005992,89.4129125 78.9937657,89.4127124 C77.6958367,89.4125123 76.3978078,89.4129125 75.0997789,89.414213 C74.3764398,89.4149133 73.6532008,89.4190149 72.9298618,89.4196151 C71.9976538,89.4203154 71.0654457,89.4187148 70.1332377,89.4186147 C69.4016959,89.4184147 68.6701542,89.4211157 67.9386124,89.4185147 C66.9984017,89.4152134 66.0567906,89.436922 65.1184805,89.3927045 C64.3789361,89.3579908 63.9167834,88.8959083 63.7051135,88.2108376 C63.1601334,86.4469408 62.6347598,84.6770416 62.102784,82.9092433 C61.4465671,80.7283818 60.792651,78.5467199 60.135834,76.3660585 C59.4725148,74.1636884 58.8059945,71.9623188 58.1421752,69.7600488 C57.4593495,67.4946539 56.7767239,65.229259 56.0967993,62.9630638 C55.6051368,61.3248166 55.1317804,59.6811673 54.6251129,58.047722 C54.1548575,56.531523 53.6495906,55.0262284 53.1628297,53.5151315 C52.7322874,52.1787035 52.3027455,50.8418754 51.8815063,49.5024463 C51.8225868,49.3147721 51.7418601,49.243444 51.5343916,49.2445444 C49.6205592,49.2540482 47.7066267,49.2507469 45.7927943,49.2509469 C44.3030019,49.251147 42.8131096,49.2533479 41.3233173,49.2499465 C40.5855735,49.2482459 40.1546311,48.8976074 40.0198866,48.2050338 C39.8969459,47.572684 40.3577982,46.8998181 41.0030114,46.8508988 C41.6404221,46.8025797 42.2831345,46.8202867 42.9235461,46.8162851 C43.6633906,46.8117834 44.4033351,46.8151847 45.1431796,46.8150847 C46.0669849,46.8149846 46.9908902,46.8146845 47.9147955,46.8145845 C48.6630427,46.8143844 49.41119,46.8137842 50.1593372,46.8142844 C50.9331929,46.8147846 51.7075488,46.8000787 52.4808043,46.8218874 C53.3549932,46.8464971 54.0150113,47.3762063 54.2780983,48.2564541 C54.8633917,50.2146276 55.4341803,52.1770028 56.0145721,54.136577 C56.3141711,55.1478765 56.6221729,56.1565749 56.925273,57.166774 C57.0207046,57.4849997 57.1166363,57.8031254 57.2043653,58.1233519 C57.2383765,58.247701 57.2993967,58.2941193 57.4318404,58.2937192 C58.656145,58.2900177 59.8803495,58.2937192 61.1046541,58.2938192 C62.1457982,58.2939193 63.1868422,58.2923186 64.2280863,58.290618 C64.3012104,58.2904179 64.3743346,58.2826148 64.4879722,58.2761122 L64.4879722,58.2761122 Z" id="Fill-1" fill="#27245C"></path>
        <path d="M70.597151,98.853692 C70.5854471,96.7756711 68.9574091,95.1811412 66.975054,95.163034 C64.8150402,95.1433262 63.1706969,96.8331938 63.2427207,99.0136552 C63.3077421,100.982733 64.8848633,102.597871 67.011266,102.554454 C69.041737,102.512938 70.5947502,100.864686 70.597151,98.853692 M73.0224524,98.9080134 C72.9888413,102.329865 70.2261284,105.039035 66.8103996,104.99962 C63.4929033,104.961305 60.7570993,102.152895 60.8060154,98.7983701 C60.8556318,95.383221 63.5718294,92.7397767 66.8610163,92.7246035 C70.3235605,92.7088645 73.0560635,95.4825602 73.0224524,98.9080134" id="Fill-4" fill="#27245C"></path>
        <path d="M101.61234,98.8518312 C101.609689,96.7848147 99.9791504,95.1827818 97.9926939,95.1616735 C95.850386,95.1389645 94.1943387,96.8351346 94.2595603,98.9896857 C94.3201803,100.989476 95.916908,102.600512 98.0309066,102.554694 C100.077183,102.510377 101.622493,100.840117 101.61234,98.8518312 M104.036691,98.8510309 C104.069302,102.220362 101.338099,104.894518 98.1589489,104.994458 C94.6166783,105.105902 91.8063496,102.271282 91.8269428,98.8298225 C91.8476633,95.4164741 94.5639609,92.7460192 97.8714539,92.7244107 C101.316992,92.7020018 104.035591,95.433981 104.036691,98.8510309" id="Fill-7" fill="#27245C"></path>
        <path d="M82.6297472,96.7994605 C80.8395556,96.7994605 79.049264,96.7972596 77.2590724,96.8007647 C76.6923852,96.8017614 76.2609426,96.6016823 76.0179623,96.0589679 C75.6765495,95.2961666 76.1946207,94.4031138 77.0383995,94.3751027 C78.0035184,94.34279 78.9702379,94.3602969 79.9362571,94.3594966 C81.6764322,94.358096 83.4166072,94.3588963 85.1568823,94.3589964 C86.1644152,94.3590964 87.1720482,94.3552949 88.1796812,94.3612973 C88.826595,94.3649988 89.3588708,94.9390255 89.349493,95.6068894 C89.3400646,96.2572463 88.7927838,96.7986601 88.1499714,96.79836 C86.3098633,96.7973596 84.4698553,96.7979599 82.6297472,96.7979599 L82.6297472,96.7994605 Z" id="Fill-9" fill="#27245C"></path>
        <path d="M84.0327408,75.0812609 L84.0327408,75.3954851 C84.0326408,76.362267 84.0133344,77.3295491 84.0389429,78.2956307 C84.0583493,79.0235183 83.5216719,79.5818388 82.8132378,79.5844486 C82.1404155,79.5870409 81.618443,79.0096128 81.6168425,78.278724 C81.6145417,77.2975364 81.6161422,76.3162488 81.6160422,75.3350612 L81.6160422,75.0846623 C81.4878999,75.0748584 81.3759629,75.0590522 81.2641259,75.0588521 C80.314112,75.0567512 79.363998,75.0631538 78.4139841,75.0553507 C77.7868768,75.0502487 77.3641371,74.7594338 77.1988825,74.2465312 C76.9410973,73.4471154 77.4952805,72.6543022 78.3360583,72.6441982 C79.3430911,72.6320934 80.350424,72.6343943 81.3575568,72.6442982 C81.5707272,72.6464991 81.6220442,72.5762714 81.6202436,72.3737914 C81.6109405,71.3926038 81.6108405,70.4113161 81.6177428,69.4301285 C81.6239448,68.5753908 82.2649566,68.0181707 83.0656212,68.1579259 C83.6284072,68.2562648 84.0274391,68.7289515 84.0306401,69.3221859 C84.0361419,70.3305842 84.0380426,71.3391827 84.0284394,72.347481 C84.0263387,72.5669677 84.0747547,72.6489 84.3154342,72.6456988 C85.322567,72.6319934 86.3297999,72.6374955 87.3370327,72.6428977 C87.8467011,72.6456988 88.2108215,72.9088027 88.4239919,73.3510774 C88.6425641,73.8039563 88.5629378,74.246031 88.2508347,74.6373856 C87.997551,74.954811 87.6482356,75.0602526 87.2544054,75.0582518 C86.6627099,75.0553507 86.0710144,75.0576516 85.4793188,75.0576516 C85.1042949,75.0577516 84.729271,75.056251 84.354247,75.058752 C84.2562147,75.0594523 84.1583823,75.0720573 84.0327408,75.0812609" id="Fill-11" fill="#27245C"></path>
    </g>
</svg>