<?xml version="1.0" encoding="utf-8"?>
<svg viewBox="-224.5 -224.5 600 600" xmlns="http://www.w3.org/2000/svg">
  <g>
    <path d="M75.498,373.5c-79.598,0-154.432-30.998-210.717-87.283S-222.502,155.098-222.502,75.5 s30.998-154.433,87.283-210.718C-78.933-191.502-4.099-222.5,75.498-222.5s154.434,30.998,210.719,87.282 C342.502-78.933,373.5-4.098,373.5,75.5s-30.998,154.432-87.283,210.717S155.096,373.5,75.498,373.5L75.498,373.5z M75.498-212.5 c-158.805,0-288,129.196-288,288c0,158.805,129.195,288,288,288S363.5,234.305,363.5,75.5C363.5-83.304,234.303-212.5,75.498-212.5 L75.498-212.5z" style="fill: rgb(39, 36, 92);"/>
    <g>
      <path fill="#27245C" d="M248.832,99.335V-53.443c0-9.394-7.643-17.036-17.036-17.036H-80.798c-9.394,0-17.036,7.643-17.036,17.036 v208.907c0,9.394,7.643,17.036,17.036,17.036h118.13v40.979H5.166c-2.209,0-4,1.791-4,4s1.791,4,4,4h104.497h0.003h36.166 c2.209,0,4-1.791,4-4s-1.791-4-4-4h-32.163l0.028-40.979h66.262c9.273,13.637,24.914,22.613,42.613,22.613 c28.397,0,51.5-23.102,51.5-51.498C274.073,124.804,263.93,108.324,248.832,99.335z M105.669,213.479H45.332V172.5h60.365 L105.669,213.479z M109.703,164.5c-0.001,0-0.002,0-0.003,0H-80.798c-4.982,0-9.036-4.054-9.036-9.036V-53.443 c0-4.982,4.054-9.036,9.036-9.036h312.594c4.982,0,9.036,4.054,9.036,9.036V95.469c-5.679-2.161-11.831-3.355-18.26-3.355 c-28.397,0-51.5,23.104-51.5,51.502c0,7.434,1.596,14.496,4.442,20.885H109.703z M222.573,187.113 c-23.986,0-43.5-19.513-43.5-43.498c0-23.987,19.514-43.502,43.5-43.502s43.5,19.515,43.5,43.502 C266.073,167.601,246.559,187.113,222.573,187.113z"/>
      <path fill="#27245C" d="M244.922,139.613h-18.35v-18.35c0-2.209-1.791-4-4-4s-4,1.791-4,4v18.35h-18.35c-2.209,0-4,1.791-4,4 s1.791,4,4,4h18.35v18.35c0,2.209,1.791,4,4,4s4-1.791,4-4v-18.35h18.35c2.209,0,4-1.791,4-4S247.131,139.613,244.922,139.613z"/>
    </g>
    <g>
      <path fill="#27245C" d="M191.913-7.887H39.15c-1.933,0-3.5-1.567-3.5-3.5s1.567-3.5,3.5-3.5h152.764c1.933,0,3.5,1.567,3.5,3.5 S193.846-7.887,191.913-7.887z"/>
      <path fill="#27245C" d="M123.077,14.589H39.15c-1.933,0-3.5-1.567-3.5-3.5s1.567-3.5,3.5-3.5h83.928c1.933,0,3.5,1.567,3.5,3.5 S125.01,14.589,123.077,14.589z"/>
      <path fill="#27245C" d="M191.913,73.312H39.15c-1.933,0-3.5-1.567-3.5-3.5s1.567-3.5,3.5-3.5h152.764c1.933,0,3.5,1.567,3.5,3.5 S193.846,73.312,191.913,73.312z"/>
      <path fill="#27245C" d="M123.077,95.786H39.15c-1.933,0-3.5-1.567-3.5-3.5s1.567-3.5,3.5-3.5h83.928c1.933,0,3.5,1.567,3.5,3.5 S125.01,95.786,123.077,95.786z"/>
      <path fill="#27245C" d="M13.475,73.894c-0.006-0.151-0.026-0.301-0.06-0.452c-0.012-0.052-0.02-0.103-0.035-0.154 c-0.055-0.187-0.125-0.371-0.227-0.547c-0.102-0.176-0.226-0.33-0.361-0.471c-0.035-0.037-0.075-0.069-0.112-0.104 c-0.115-0.106-0.237-0.201-0.368-0.283c-0.027-0.017-0.047-0.041-0.074-0.057l-25.951-14.984c-0.773-0.446-1.727-0.446-2.5,0 l-25.951,14.984c-0.027,0.016-0.047,0.04-0.074,0.057c-0.131,0.083-0.254,0.177-0.369,0.284c-0.037,0.035-0.076,0.066-0.111,0.103 c-0.134,0.142-0.259,0.295-0.361,0.472c-0.102,0.176-0.172,0.36-0.227,0.547c-0.015,0.051-0.023,0.102-0.035,0.154 c-0.034,0.15-0.054,0.3-0.06,0.452c-0.001,0.033-0.013,0.064-0.013,0.098v29.965c0,0.894,0.477,1.719,1.25,2.165l25.951,14.984 c0.029,0.017,0.062,0.022,0.091,0.037c0.134,0.071,0.273,0.128,0.42,0.174c0.052,0.017,0.101,0.035,0.153,0.048 c0.189,0.045,0.383,0.076,0.586,0.076s0.397-0.031,0.586-0.076c0.052-0.013,0.101-0.031,0.152-0.048 c0.147-0.045,0.287-0.103,0.42-0.174c0.029-0.015,0.062-0.021,0.091-0.037l25.951-14.984c0.773-0.446,1.25-1.271,1.25-2.165 V73.992C13.488,73.958,13.476,73.927,13.475,73.894z M-14.964,61.895L5.988,73.992l-7.974,4.603L-22.94,66.5L-14.964,61.895z M-35.915,73.992l7.975-4.605l20.953,12.095l-7.977,4.605L-35.915,73.992z M-38.415,78.322l20.951,12.095v24.194l-20.951-12.098 V78.322z M-12.464,114.611V90.417c0,0,11.713-6.762,11.718-6.765l9.233-5.33v24.191L-12.464,114.611z"/>
      <path fill="#27245C" d="M13.475-7.304c-0.006-0.151-0.026-0.301-0.06-0.452c-0.012-0.052-0.02-0.103-0.035-0.154 c-0.055-0.187-0.125-0.371-0.227-0.547c-0.102-0.176-0.226-0.33-0.361-0.471c-0.035-0.037-0.075-0.069-0.112-0.104 c-0.115-0.106-0.237-0.201-0.368-0.283c-0.027-0.017-0.047-0.041-0.074-0.057l-25.951-14.984c-0.773-0.446-1.727-0.446-2.5,0 L-42.165-9.372c-0.028,0.016-0.048,0.041-0.075,0.058c-0.13,0.082-0.252,0.176-0.367,0.282c-0.038,0.035-0.077,0.067-0.112,0.104 c-0.135,0.141-0.259,0.295-0.361,0.471c-0.102,0.176-0.172,0.36-0.227,0.547c-0.015,0.051-0.023,0.102-0.035,0.154 c-0.034,0.15-0.054,0.3-0.06,0.452c-0.001,0.033-0.013,0.064-0.013,0.098V22.76c0,0.893,0.477,1.718,1.25,2.165l25.951,14.983 c0.029,0.017,0.062,0.022,0.091,0.038c0.134,0.071,0.274,0.128,0.422,0.174c0.05,0.016,0.099,0.034,0.15,0.046 c0.189,0.046,0.384,0.077,0.587,0.077s0.398-0.031,0.587-0.077c0.051-0.012,0.1-0.031,0.15-0.046 c0.147-0.046,0.288-0.104,0.422-0.175c0.029-0.015,0.062-0.021,0.09-0.037l25.951-14.983c0.773-0.447,1.25-1.272,1.25-2.165 V-7.207C13.488-7.24,13.476-7.271,13.475-7.304z M-14.964-19.304L5.988-7.207l-7.975,4.604L-22.94-14.698L-14.964-19.304z M-35.915-7.207l7.975-4.605L-6.988,0.285l-7.976,4.605L-35.915-7.207z M-38.415-2.876L-17.464,9.22v24.193l-20.951-12.096V-2.876 z M-12.464,33.413V9.22l0.39-0.225L8.488-2.876v24.193L-12.464,33.413z"/>
    </g>
  </g>
</svg>