<?xml version="1.0" encoding="UTF-8" standalone="no"?>
<!DOCTYPE svg PUBLIC "-//W3C//DTD SVG 1.1//EN" "http://www.w3.org/Graphics/SVG/1.1/DTD/svg11.dtd">
<svg version="1.1" xmlns="http://www.w3.org/2000/svg" xmlns:xlink="http://www.w3.org/1999/xlink" preserveAspectRatio="xMidYMid meet" viewBox="0 0 128 128" width="128" height="128"><defs><path d="M0 0L128 0L128 128L0 128L0 0Z" id="a6N62ggEBv"></path><path d="M102.13 18.93C100.69 17.12 98.51 16 96 16C89.6 16 38.4 16 32 16C29.49 16 27.31 17.12 25.81 18.93C25.08 19.83 19.19 27 18.45 27.89C16.91 29.71 16 32.11 16 34.67C16 41.33 16 94.67 16 101.33C16 107.2 20.8 112 26.67 112C34.13 112 93.87 112 101.33 112C107.2 112 112 107.2 112 101.33C112 94.67 112 41.33 112 34.67C112 32.11 111.09 29.71 109.55 27.89C108.06 26.1 102.87 19.83 102.13 18.93ZM34.67 64L53.33 64L53.33 53.33L74.67 53.33L74.67 64L93.33 64L64 93.33L34.67 64ZM31.63 21.33L95.63 21.33L100.64 26.67L27.31 26.67L31.63 21.33Z" id="a1T9j3xZMv"></path></defs><g><g><g><use xlink:href="#a6N62ggEBv" opacity="1" fill="#000000" fill-opacity="0"></use><g><use xlink:href="#a6N62ggEBv" opacity="1" fill-opacity="0" stroke="#000000" stroke-width="1" stroke-opacity="0"></use></g></g><g><use xlink:href="#a1T9j3xZMv" opacity="1" fill="#27245c" fill-opacity="1"></use><g><use xlink:href="#a1T9j3xZMv" opacity="1" fill-opacity="0" stroke="#000000" stroke-width="1" stroke-opacity="0"></use></g></g></g></g></svg>