<?xml version="1.0" encoding="UTF-8"?>
<svg width="150px" height="150px" viewBox="0 0 150 150" version="1.1" xmlns="http://www.w3.org/2000/svg" xmlns:xlink="http://www.w3.org/1999/xlink">
    <title>Icon / Find-Product</title>
    <g id="Icon-/-Find-Product" stroke="none" stroke-width="1" fill="none" fill-rule="evenodd">
        <path d="M75,2.51677852 C35.0325503,2.51677852 2.51677852,35.0325503 2.51677852,75 C2.51677852,114.96745 35.0325503,147.483221 75,147.483221 C114.96745,147.483221 147.483221,114.96745 147.483221,75 C147.483221,35.0325503 114.96745,2.51677852 75,2.51677852 M75,150 C54.9669463,150 36.1328859,142.19849 21.967198,128.032802 C7.80151007,113.867114 -1.42108547e-14,95.0330537 -1.42108547e-14,75 C-1.42108547e-14,54.9669463 7.80151007,36.1326342 21.967198,21.9669463 C36.1328859,7.80151007 54.9669463,0 75,0 C95.0333054,0 113.867366,7.80151007 128.033054,21.9669463 C142.19849,36.1326342 150,54.9669463 150,75 C150,95.0330537 142.19849,113.867114 128.033054,128.032802 C113.867366,142.19849 95.0330537,150 75,150" id="Fill-1" fill="#07AD88"></path>
        <path d="M76.1032464,40.7407913 C78.7975088,40.1139799 81.4675092,39.8827614 84.0416513,40.0554616 C85.9447848,40.1824891 87.7998702,40.4841197 89.5560051,40.9520279 C91.7407671,41.5338801 93.8422775,42.3754963 95.80226,43.4535643 C97.9867842,44.6555673 99.9993342,46.1639586 101.783775,47.9371093 C103.675729,49.8175434 105.262981,51.8989854 106.501529,54.1236306 C107.352599,55.6527174 108.076175,57.3219149 108.651563,59.0848368 C109.346358,61.2133788 109.780931,63.4977316 109.943153,65.8750952 C110.081827,67.901825 109.967415,69.9735139 109.59302,72.2086258 C109.250975,74.2524829 108.682961,76.2461475 107.905152,78.133718 C106.963932,80.4173572 105.700647,82.5796781 104.150739,84.5600214 C102.053272,87.2402051 99.4850767,89.4936336 96.5179866,91.2579828 C94.8251231,92.2644492 92.990256,93.0958366 91.0640499,93.7285949 C88.3338703,94.6251612 85.4198235,95.0883118 82.4030203,95.1052012 L82.4030203,95.1052012 L82.310492,95.1054391 C80.4601639,95.1054391 78.6186366,94.9165631 76.8351477,94.5438066 C74.6061433,94.0782772 72.6918303,93.4438537 70.9825542,92.6043784 C69.9909077,92.1174399 69.0118679,91.5700801 68.0651774,91.0407992 L68.0651774,91.0407992 L67.7661849,90.8738081 C67.7171853,90.846452 67.6929234,90.8397914 67.6848361,90.8383641 C67.6850739,90.8412186 67.6672343,90.854302 67.6336958,90.8923626 L67.6336958,90.8923626 L66.9305758,91.6866409 C65.2546005,93.5801584 63.5786251,95.4739138 61.897179,97.3626737 C59.470987,100.08853 57.0402757,102.810105 54.6069479,105.530014 C54.4033381,105.757664 54.2021069,105.988645 54.0011135,106.219388 C53.445468,106.857379 52.8710313,107.51678 52.2414108,108.105055 C50.8932092,109.364863 49.2904953,110 47.4656184,110 C47.1195293,110 46.7655907,109.977164 46.4038026,109.931491 C43.3548881,109.546365 40.7262756,107.082889 40.153504,104.074194 C39.6325863,101.337871 40.4389384,98.9973788 42.5502011,97.1174204 C44.9842425,94.9496283 47.4209004,92.7849286 49.8575582,90.6197532 L49.8575582,90.6197532 L53.3443766,87.5213781 C55.2584518,85.8195912 57.1727648,84.11828 59.0887429,82.4191097 C59.1627179,82.3532172 59.1710431,82.3277641 59.171281,82.3263368 L59.171281,82.3263368 L59.1677682,82.3108842 C59.1627845,82.2947846 59.1505394,82.2651543 59.1201406,82.2176261 C57.7200852,80.032231 56.6513714,77.6553432 55.9437321,75.1528552 C55.0693515,72.0611408 54.7391991,68.8764156 54.9620758,65.6869329 C55.0959921,63.7708168 55.4201979,61.8837221 55.9261303,60.0777441 C56.5605081,57.8131352 57.4834125,55.6443916 58.6689165,53.6316967 C59.9236383,51.5022031 61.4278773,49.574431 63.1400077,47.902379 C65.2017951,45.8892083 67.5309394,44.2197729 70.0627421,42.9409349 C71.9977491,41.9632519 74.0302795,41.2229722 76.1032464,40.7407913 Z M60.3208678,83.9914904 C60.3039796,84.0026707 60.2766255,84.0231283 60.2340482,84.061189 C57.0333777,86.917641 53.8286636,89.7695734 50.6225223,92.6200784 L50.6225223,92.6200784 L50.0197801,93.15602 C48.0907196,94.8711282 46.0960093,96.6447546 44.1265123,98.3810341 C43.5263866,98.9100771 42.7875873,99.6434584 42.3960665,100.62685 C41.7916593,102.144519 41.8466054,103.597009 42.5597156,104.943642 C43.5649202,106.842393 45.1352848,107.907853 47.1019275,108.025128 L47.1019275,108.025128 C48.8004997,108.025128 50.2245792,107.432571 51.2281188,106.310495 C52.5197092,104.866569 53.8058288,103.417648 55.0919484,101.968726 C55.9208973,101.034575 56.7500841,100.1009 57.5804602,99.1681759 C60.3817605,96.0227008 63.1849636,92.8788909 65.992924,89.7396006 C66.0107636,89.7196188 66.0231325,89.7041566 66.0309819,89.6925005 C66.0212296,89.6832233 66.0069579,89.6710914 65.9865017,89.6558672 C63.8833263,88.0908607 61.9925616,86.203528 60.3674887,84.0457269 C60.3472705,84.0190844 60.3318095,84.002195 60.3208678,83.9914904 Z M82.570713,42.0215323 L82.3487878,42.0215323 C75.578523,42.0215323 69.2069147,44.6608007 64.397346,49.4595354 C59.5737434,54.2718293 56.9042187,60.6691115 56.8802706,67.472929 C56.8564084,74.3355027 59.5071421,80.7841668 64.3443028,85.6309531 C69.1767063,90.4727439 75.6206245,93.1272366 82.463913,93.122011 C89.3221868,93.110823 95.7444596,90.4501454 100.547606,85.6300016 C105.340287,80.8205623 107.984122,74.4073422 107.99199,67.5716488 C108.000059,60.7331009 105.323636,54.2958551 100.455553,49.4457384 C95.6478876,44.6553295 89.3003035,42.0215323 82.570713,42.0215323 L82.570713,42.0215323 Z M81.4660583,44.199125 C87.9078358,43.9405504 94.0094707,46.247026 98.642308,50.6929861 C103.270388,55.1341885 105.823598,61.1078081 105.831002,67.5131782 C105.850952,80.3821987 95.7798772,90.6671387 82.9032202,90.9280921 C82.7390955,90.9314224 82.574495,90.9328497 82.410846,90.9328497 C76.269726,90.9328497 70.4975299,88.5999695 66.1082633,84.331943 C61.6060122,79.9542542 59.099185,74.0529499 59.0494719,67.7156133 C59.0011859,61.5738132 61.3201021,55.7605242 65.5790204,51.3464399 C69.7920314,46.9794557 75.4343548,44.4412859 81.4660583,44.199125 Z M82.43154,46.1642441 C70.6564217,46.1675744 61.073915,55.7560045 61.0639171,67.5383933 C61.0591675,73.256055 63.2698565,78.628792 67.2892479,82.6670273 C71.3172022,86.7138262 76.6940717,88.945132 82.4296371,88.9498896 L82.4296371,88.9498896 L82.4477146,88.9498896 C88.1663917,88.9498896 93.5320817,86.7409445 97.5588468,82.728638 C101.596316,78.7056269 103.830553,73.3205202 103.850058,67.5650358 C103.836262,55.7638545 94.2275901,46.1642441 82.43154,46.1642441 L82.43154,46.1642441 Z M83.0877535,52.8838762 L95.5755062,60.3765916 L95.5755062,74.4007529 L83.0877535,81.8913274 L70.6000009,74.4007529 L70.6000009,60.3765916 L83.0877535,52.8838762 Z M93.947579,62.258453 L83.9012414,68.2832165 L83.9012414,79.517532 L93.947579,73.4939579 L93.947579,62.258453 Z M72.2281659,62.258453 L72.2281659,73.4939579 L82.2756928,79.517532 L82.2756928,68.2832165 L72.2281659,62.258453 Z M89.1304938,67.3876494 L89.1304938,69.4388807 L85.9086536,71.4175589 L85.9086536,69.3668033 L89.1304938,67.3876494 Z M77.6942337,58.0054129 L72.9881349,60.8299891 L83.0939379,66.8904345 L87.8566479,64.03089 L77.6942337,58.0054129 Z M83.0934622,54.7685922 L79.2648362,57.0629359 L89.4251096,63.0879374 L93.1949838,60.8299891 L83.0934622,54.7685922 Z" id="Combined-Shape" fill="#27245C"></path>
    </g>
</svg>