<?xml version="1.0" encoding="UTF-8"?>
<svg width="150px" height="150px" viewBox="0 0 150 150" version="1.1" xmlns="http://www.w3.org/2000/svg" xmlns:xlink="http://www.w3.org/1999/xlink">
    <title>Icon / New-Search</title>
    <g id="Icon-/-New-Search" stroke="none" stroke-width="1" fill="none" fill-rule="evenodd">
        <path d="M75,2.51677852 C35.0325503,2.51677852 2.51677852,35.0325503 2.51677852,75 C2.51677852,114.96745 35.0325503,147.483221 75,147.483221 C114.96745,147.483221 147.483221,114.96745 147.483221,75 C147.483221,35.0325503 114.96745,2.51677852 75,2.51677852 M75,150 C54.9669463,150 36.1328859,142.19849 21.967198,128.032802 C7.80151007,113.867114 -1.42108547e-14,95.0330537 -1.42108547e-14,75 C-1.42108547e-14,54.9669463 7.80151007,36.1326342 21.967198,21.9669463 C36.1328859,7.80151007 54.9669463,0 75,0 C95.0333054,0 113.867366,7.80151007 128.033054,21.9669463 C142.19849,36.1326342 150,54.9669463 150,75 C150,95.0330537 142.19849,113.867114 128.033054,128.032802 C113.867366,142.19849 95.0330537,150 75,150" id="Fill-1" fill="#07AD88"></path>
        <path d="M84.4398293,68.0883377 C88.2471852,68.0883377 91.9390303,69.4276857 94.834801,71.8595613 C98.3243772,74.7900535 100.262308,78.554808 100.595089,83.0490754 C100.92612,87.5219451 99.5862451,91.4377277 96.4987065,95.0206015 L96.4987065,95.0206015 L96.3739448,95.1654093 L109.654436,108.375515 C109.954964,108.674337 110.053224,108.96022 109.973466,109.302335 C109.861206,109.781793 109.438166,110 109.092134,110 C108.876864,110 108.673595,109.92461 108.504829,109.781793 C108.456074,109.741237 108.40607,109.690728 108.353065,109.637732 L108.30731,109.591702 L95.0738233,96.4246402 L94.9018072,96.5627301 C91.765264,99.078455 88.287689,100.354107 84.565591,100.354107 C83.8342727,100.354107 83.0804522,100.304843 82.3246316,100.207558 C78.1079874,99.6649018 74.594909,97.714226 71.8826555,94.4100201 C69.2969138,91.2603256 68.0082933,87.3005036 68.2538163,83.2603157 C68.497089,79.2552101 70.2179999,75.5066283 73.0992692,72.7047712 C76.1605554,69.7277513 80.1881818,68.0883377 84.4398293,68.0883377 Z M84.8921966,40 C85.484752,40 86.0585556,40.2413464 86.4680939,40.662334 C86.8623807,41.0676466 87.0694001,41.5966182 87.0516484,42.1517148 C87.0421475,42.4413304 87.0441477,42.724477 87.046648,43.0242939 C87.0478981,43.1723362 87.0491482,43.311919 87.0491482,43.4544875 L87.0491482,43.4544875 L87.0491482,43.7281793 L89.5068154,43.7286769 L89.5068154,43.7286769 L90.0571794,43.7276817 C90.577478,43.7276817 91.0200194,43.8896574 91.4100558,44.2230638 C91.8991015,44.6408169 92.1471247,45.1620753 92.1473747,45.7719103 C92.1508751,51.735156 92.1500051,57.6981528 92.1493749,63.6613985 L92.1491249,65.185364 C92.1491249,65.7603655 91.7723397,66.1778698 91.2532912,66.1778698 C91.1717836,66.1778698 91.0885258,66.1671709 91.005518,66.146022 C90.6392338,66.0529668 90.3564573,65.7056271 90.3332052,65.3199705 C90.3299549,65.2682179 90.3302049,65.2159677 90.3304549,65.1639662 L90.3307049,45.5532057 L87.0491482,45.5532057 L87.0488982,63.8139195 C87.0488982,64.3254742 86.790374,64.6922212 86.3573335,64.79498 C86.2858268,64.8121479 86.21307,64.8206075 86.1408133,64.8206075 C85.6600183,64.8206075 85.2612311,64.4441569 85.2324784,63.9634547 C85.2292281,63.9094628 85.2297281,63.8547244 85.2299781,63.7999861 L85.2299781,63.7999861 L85.2302282,63.7258405 L85.2302282,41.8300026 L41.8396722,41.8300026 L41.8396722,102.268606 L64.0379034,102.268202 L64.0379034,102.268202 L75.8070973,102.266118 C76.2288867,102.266118 76.5129133,102.401471 76.7006809,102.692082 C76.8774474,102.965525 76.8941989,103.288232 76.7464351,103.578097 C76.5981713,103.869703 76.3128946,104.056062 75.9836138,104.076216 C75.9488606,104.078704 75.9133573,104.078953 75.8776039,104.078953 L75.4655654,104.078455 L60.2843963,104.07746 L60.2843963,104.07746 L54.5756669,104.077961 C54.3194502,104.078012 54.0612847,104.078069 53.8012999,104.078131 L51.4158097,104.078847 C51.1460741,104.078945 50.8749075,104.079051 50.6024395,104.079164 L48.9530504,104.079931 C47.2901158,104.080792 45.5896524,104.081947 43.8796281,104.083493 L42.1674528,104.085173 C41.5863985,104.085173 41.0413475,103.860994 40.6325593,103.45394 C40.2242712,103.047632 40,102.506718 40,101.93097 C40.0042005,92.3222994 40.0057907,82.6170704 40.0062828,72.9890344 L40.0060008,42.1459922 C40.0060008,40.9061685 40.9103353,40.0062203 42.1564518,40.0062203 L42.1564518,40.0062203 L69.9470773,40.0060365 C70.313591,40.0059747 70.6818628,40.0059075 71.0517834,40.0058346 L74.4226323,40.0050119 C77.8320919,40.0040113 81.3485244,40.0024429 84.8921966,40 Z M84.4328286,69.980543 C76.5493417,69.980543 70.1317418,76.3687573 70.1264881,84.2207249 C70.1212408,92.0711997 76.5430911,98.4623997 84.4413294,98.4678736 L84.4413294,98.4678736 L84.4465799,98.5922789 L84.4465799,98.4678736 C92.3290667,98.4678736 98.7466666,92.0796592 98.7526703,84.2276916 C98.7551674,80.4226298 97.2687785,76.8457274 94.567276,74.1558351 C91.8652734,71.4659428 88.266187,69.9832799 84.4328286,69.980543 Z M61.9997254,91.7775906 L65.0359155,91.7802653 C65.5542139,91.7815094 65.9630021,92.1753767 65.966527,92.6772279 C65.9682526,92.9160861 65.876494,93.1407622 65.7087284,93.3102022 C65.5322119,93.4876043 65.2919394,93.5858845 65.031165,93.5873773 C64.624377,93.5893678 64.217839,93.5901143 63.811301,93.5901143 L63.811301,93.5901143 L61.9703789,93.5886214 L60.1934628,93.5901143 C59.7751737,93.5901143 59.3571346,93.5893678 58.9385955,93.5866309 C58.5018047,93.5836452 58.1455214,93.2932831 58.0517626,92.8640847 C57.9610041,92.4463315 58.1662733,92.047488 58.5630604,91.8710812 C58.687072,91.8158453 58.8330857,91.7839975 58.9633478,91.7834999 C60.9877871,91.7762844 63.0117263,91.7760356 65.0359155,91.7802653 Z M52.1891646,88.502085 C52.5737006,88.1221511 53.1507545,88.1047344 53.5100381,88.464017 C53.8793226,88.832008 53.862071,89.3851142 53.4692843,89.7789815 L53.4692843,89.7789815 L53.3080192,89.9402108 C52.4136856,90.8364269 51.4888491,91.7629979 50.5557619,92.6751378 C50.0207119,93.1983867 49.5034136,93.4419724 48.9283598,93.4419724 C48.8496024,93.4419724 48.7680948,93.4374938 48.6870872,93.4277902 C48.2720484,93.3797697 47.9305165,93.2277464 47.6429896,92.9635094 C47.3607133,92.7035023 47.0814372,92.4270736 46.8131621,92.142683 C46.4691299,91.7776777 46.4776307,91.2375097 46.833414,90.8859402 C47.1669451,90.5560172 47.7359983,90.5468112 48.0845309,90.867777 C48.2327948,91.0043741 48.3730579,91.1541581 48.5218218,91.3128993 C48.5950786,91.3910259 48.6703357,91.4716406 48.7500931,91.5542457 L48.7500931,91.5542457 L48.9493618,91.7610074 L49.3306474,91.3599246 C49.443908,91.2399978 49.5456675,91.132014 49.6506773,91.0272647 L49.6506773,91.0272647 L49.8962003,90.7821862 C50.6472705,90.0327684 51.422843,89.2589671 52.1891646,88.502085 Z M61.9973252,87.7169629 L65.0120132,87.7189534 C65.2842887,87.719451 65.5323119,87.8187265 65.7108286,87.9986166 C65.8780942,88.1668126 65.9688527,88.3912399 65.9666433,88.6310934 C65.961852,89.1399112 65.5515637,89.525319 65.0125133,89.5273095 C64.6119758,89.5285535 64.2114384,89.5288023 63.811151,89.5288023 L63.811151,89.5288023 L61.9692288,89.5278071 L60.1943129,89.5292999 C59.7765238,89.5292999 59.3587348,89.5285535 58.9409457,89.5263142 C58.5031548,89.5233285 58.1461214,89.2337129 58.0523627,88.805012 C57.9606041,88.3870101 58.1651232,87.9876689 58.5611602,87.8117598 C58.687422,87.7557774 58.8409364,87.7236808 58.9824496,87.7231832 C60.9923875,87.7147236 63.0023254,87.7164653 65.0120132,87.7189534 Z M94.6611097,82.3038377 C95.0538964,82.2555684 95.4031791,82.5053743 95.4719355,82.8731165 C95.5714448,83.4038297 95.6534525,83.9447441 95.7159583,84.4809311 C95.7619626,84.8812675 95.488187,85.2179084 95.0646474,85.2816039 L95.0646474,85.2816039 C95.0323944,85.2863313 95.0001414,85.2885706 94.9683884,85.2885706 C94.6338572,85.2885706 94.3343292,85.0365254 94.2718233,84.7021238 C94.1980664,84.3087542 94.1423112,83.9193654 94.0885562,83.5429149 C94.0658041,83.3849201 94.0468023,83.252304 94.0278005,83.1259082 C94.0383015,82.6758096 94.2993259,82.3468819 94.6611097,82.3038377 Z M84.0874463,73.1874888 C84.1914561,73.1683304 84.3414701,73.1708185 84.490234,73.1775364 C84.5809925,73.1817662 84.6574996,73.1850007 84.7265061,73.1850007 C87.8205453,73.2429736 90.4452906,74.3437121 92.5322357,76.4566124 C93.32731,77.261515 93.9533686,78.2438195 94.3934097,79.3759082 C94.5509244,79.7817184 94.3809085,80.1939977 93.9883718,80.3557246 C93.9001136,80.392051 93.808355,80.4102142 93.7155963,80.4102142 C93.4208188,80.4102142 93.1640448,80.234305 93.0455337,79.9509097 C92.6359954,78.9710932 92.1489499,78.1908229 91.5561445,77.5653128 C90.1352617,76.0672237 88.3685965,75.1311979 86.3049036,74.7836093 C85.7816047,74.6955304 85.2470547,74.6758743 84.7297564,74.6569647 C84.5719916,74.6512421 84.4179772,74.6457682 84.2644629,74.6385527 C83.8444236,74.6181502 83.5356448,74.3402287 83.495641,73.946859 C83.4596377,73.5940455 83.7254125,73.2534236 84.0874463,73.1874888 Z M61.997544,77.9038944 L65.0127633,77.9060093 C65.2840387,77.9062581 65.5320618,78.0055335 65.7108286,78.1856725 C65.8780942,78.3538685 65.9688527,78.5782957 65.9666433,78.8179004 C65.961852,79.3272159 65.5515637,79.7123748 65.0122633,79.7141165 C64.6119758,79.7153606 64.2116884,79.7158582 63.811401,79.7158582 L63.811401,79.7158582 L61.9479768,79.714863 L60.1855621,79.7163558 C59.7705233,79.7163558 59.3557345,79.7156094 58.9406957,79.7131213 C58.5031548,79.7101356 58.1461214,79.4205199 58.0523627,78.9920679 C57.9606041,78.5735683 58.1653732,78.174476 58.5611602,77.9988157 C58.687172,77.9428333 58.8406864,77.9104879 58.9826996,77.9099902 C60.9923875,77.9022771 63.0025754,77.9027747 65.0127633,77.9060093 Z M52.1892146,74.6272816 C52.5735005,74.2473477 53.1503044,74.2301797 53.5100881,74.5889647 C53.8793726,74.9574534 53.862121,75.5105595 53.4690842,75.904178 L53.4690842,75.904178 L53.2748161,76.0989968 C52.3869831,76.988495 51.4688973,77.9080993 50.5558119,78.8005832 C50.0205119,79.3238321 49.5034636,79.5674177 48.9281598,79.5674177 C48.8496524,79.5674177 48.7683948,79.5626903 48.6873873,79.5534843 C48.2720985,79.5052151 47.9305665,79.3531917 47.6430397,79.088706 C47.3622634,78.8301917 47.0829873,78.5542606 46.8132121,78.2683772 C46.4689299,77.9031231 46.4776807,77.3629551 46.833214,77.0113856 C47.1669952,76.6814626 47.7360483,76.6725054 48.0845809,76.9932224 C48.2310946,77.1280778 48.3711077,77.277613 48.5196216,77.4361054 C48.6006292,77.5224427 48.673386,77.5998228 48.7498931,77.6794423 L48.7498931,77.6794423 L48.9491617,77.8862039 L49.3304474,77.4853699 C49.4479584,77.3609646 49.5477177,77.25522 49.6504773,77.15271 L49.6504773,77.15271 L49.8962503,76.9076315 C50.6473205,76.1582137 51.422643,75.3844125 52.1892146,74.6272816 Z M59.6211593,73.8415375 L60.6910093,73.8442744 L65.0796696,73.8442433 L65.0796696,73.8442433 L66.3617894,73.8450208 C66.8258328,73.8455184 67.191867,74.111497 67.2941266,74.5225323 C67.3643831,74.8039372 67.3081279,75.0798682 67.1363618,75.2990704 C66.9615955,75.5225024 66.6870698,75.6516352 66.3832914,75.653128 C65.8832447,75.6551185 65.3829479,75.655865 64.8826511,75.655865 L64.8826511,75.655865 L62.6671941,75.6543721 L60.4982413,75.6551185 L60.4982413,75.6551185 L58.9723487,75.6533769 C58.5275571,75.6521328 58.1612729,75.3801827 58.0607635,74.976363 C57.9925071,74.7019248 58.0505125,74.4185294 58.2197783,74.1990784 C58.3890441,73.980125 58.6490685,73.8517387 58.933095,73.8467625 C59.1623664,73.8425327 59.3918879,73.8415375 59.6211593,73.8415375 L59.6211593,73.8415375 Z M61.9966564,64.3690099 L65.0116882,64.3706583 C65.2834636,64.3709071 65.5317368,64.4701825 65.7107536,64.6500727 C65.8777692,64.8177711 65.9685276,65.0421983 65.9665598,65.281803 C65.9622771,65.7913673 65.5524888,66.1770238 65.0134384,66.1787655 C64.6111508,66.1802584 64.2088632,66.1805072 63.8068256,66.1805072 L63.8068256,66.1805072 L61.9569027,66.1795119 L60.2017386,66.1810048 C59.7814493,66.1810048 59.3619101,66.1802584 58.9418708,66.1777703 C58.5038299,66.1750333 58.1462965,65.8856665 58.0525377,65.4574633 C57.9605291,65.0392126 58.1647982,64.6398714 58.5603352,64.4639623 C58.686847,64.407731 58.8403613,64.3751368 58.9816245,64.3746392 C60.9915624,64.3671749 63.0017503,64.368419 65.0116882,64.3706583 Z M52.2179923,61.0641633 C52.4855173,60.8014192 52.7832951,60.7262784 53.1360781,60.833267 C53.4748598,60.9362746 53.6763786,61.1554768 53.7521357,61.5038118 C53.8241424,61.8339836 53.7306337,62.1136468 53.4581082,62.3833576 C53.1073254,62.7309461 52.7575427,63.0795298 52.40776,63.4281136 C51.8319562,64.0023687 51.2514019,64.5808535 50.6760982,65.1441609 C50.4658285,65.3501762 50.2305565,65.5405163 49.9772828,65.7097076 C49.6570029,65.9236848 49.2882184,66.0366448 48.9109332,66.0366448 C48.4268879,66.0366448 47.9605943,65.8507833 47.5978104,65.5131472 C47.347037,65.2800115 47.0947634,65.029708 46.8264883,64.7488007 C46.4724552,64.377824 46.4749555,63.8309381 46.8324889,63.4768805 C47.1705205,63.1427278 47.7440741,63.1382492 48.0973571,63.4694162 C48.2401205,63.6035251 48.3753831,63.7510699 48.5186465,63.907323 C48.587653,63.9827126 48.6579095,64.0593463 48.7311664,64.1369753 L48.7311664,64.1369753 L48.9259346,64.3432393 L50.7756075,62.49582 C51.2551523,62.017357 51.7349471,61.5391429 52.2179923,61.0641633 Z M58.9784242,60.3091224 L59.0224284,60.4335277 L59.0224284,60.3091224 L78.5690055,60.3093712 C79.0568011,60.3093712 79.4265857,60.5656462 79.5340957,60.9776767 C79.6046023,61.2496268 79.5490971,61.5327733 79.3823315,61.7542149 C79.2143158,61.9766516 78.9552916,62.1087701 78.6715151,62.1172296 C78.5617548,62.1204642 78.4519946,62.1214594 78.3422343,62.1214594 L78.3422343,62.1214594 L77.8299364,62.1192201 L59.0059268,62.1187225 C58.5318825,62.1184737 58.1603478,61.8497582 58.0595884,61.4339955 C57.9958324,61.170505 58.0508375,60.8953204 58.2111025,60.6788551 C58.3713675,60.4626386 58.6191407,60.3285296 58.8911661,60.3111129 C58.9206688,60.3093712 58.9494215,60.3091224 58.9784242,60.3091224 L58.9784242,60.3091224 Z M61.992256,50.4947103 L65.0605428,50.4986913 C65.5578393,50.5001841 65.9643773,50.9032574 65.9666347,51.3971466 C65.9686277,51.8937728 65.5568392,52.3005782 65.0480416,52.3040616 C64.6375032,52.3067985 64.2264648,52.3075449 63.8159264,52.3075449 L63.8159264,52.3075449 L61.9845052,52.3058033 L60.2048389,52.3082914 C59.7817993,52.3082914 59.3592598,52.3070473 58.9364703,52.3025687 C58.5436836,52.2983389 58.2636574,52.1112333 58.1038925,51.7469745 C57.9546285,51.4063526 58.0088836,51.0958369 58.269908,50.7977617 C58.4431742,50.5994596 58.6631948,50.4984424 58.9239692,50.4981936 C60.9694104,50.4944615 63.0151016,50.492471 65.0605428,50.4986913 Z M52.2179673,47.1887876 C52.4854923,46.9257947 52.7832701,46.8511515 53.1360531,46.9578913 C53.4748348,47.0608989 53.6763536,47.2801011 53.7521107,47.6281873 C53.8241174,47.9586079 53.7306087,48.2380223 53.4580832,48.5079818 C53.1073004,48.8553216 52.7575177,49.2041541 52.407735,49.5527379 C51.8319312,50.126993 51.2513769,50.7054778 50.6760732,51.2687852 C50.4658035,51.4748005 50.2305315,51.6651406 49.9772578,51.8343319 C49.6569779,52.0480603 49.2881934,52.1612691 48.9109082,52.1612691 C48.4268629,52.1612691 47.9605693,51.9754076 47.5977854,51.6377715 C47.347012,51.4046358 47.0947384,51.1543323 46.8264633,50.873425 C46.4724302,50.5024483 46.4749305,49.9555624 46.8324639,49.601256 C47.1707455,49.2671032 47.7440491,49.2626247 48.0973321,49.5940405 C48.2400955,49.7281494 48.3753581,49.8754454 48.5186215,50.0316985 C48.5876279,50.1073369 48.6578845,50.1839706 48.7311414,50.2615996 L48.7311414,50.2615996 L48.9259096,50.4676148 L50.7755825,48.6204443 C51.2551273,48.1419813 51.7349221,47.6635184 52.2179673,47.1887876 Z M58.9987511,46.434941 L59.1102616,46.4354386 L78.5713307,46.4356874 C79.0643768,46.4359362 79.4346614,46.6989291 79.536921,47.1226537 C79.6004269,47.3856466 79.5446717,47.6608312 79.3841567,47.8770477 C79.2233917,48.0932642 78.9751185,48.2268755 78.702843,48.2435459 C78.6730902,48.2452875 78.6433374,48.2455363 78.6133346,48.2455363 L59.0460056,48.2452875 C58.5462088,48.2452875 58.1794246,48.0004578 58.0649138,47.5904178 C57.9906569,47.3244392 58.0404116,47.0432831 58.2014266,46.8188559 C58.3626917,46.5936822 58.6147152,46.454597 58.8929913,46.4374291 C58.9282445,46.4354386 58.9634978,46.434941 58.9987511,46.434941 L58.9987511,46.434941 Z" id="Combined-Shape" fill="#27245C"></path>
    </g>
</svg>