<?xml version="1.0" encoding="UTF-8"?>
<svg width="150px" height="150px" viewBox="0 0 150 150" version="1.1" xmlns="http://www.w3.org/2000/svg" xmlns:xlink="http://www.w3.org/1999/xlink">
    <title>Icon / New-Listing</title>
    <g id="Icon-/-New-Listing" stroke="none" stroke-width="1" fill="none" fill-rule="evenodd">
        <path d="M75,2.51677852 C35.0325503,2.51677852 2.51677852,35.0325503 2.51677852,75 C2.51677852,114.96745 35.0325503,147.483221 75,147.483221 C114.96745,147.483221 147.483221,114.96745 147.483221,75 C147.483221,35.0325503 114.96745,2.51677852 75,2.51677852 M75,150 C54.9669463,150 36.1328859,142.19849 21.967198,128.032802 C7.80151007,113.867114 -1.42108547e-14,95.0330537 -1.42108547e-14,75 C-1.42108547e-14,54.9669463 7.80151007,36.1326342 21.967198,21.9669463 C36.1328859,7.80151007 54.9669463,0 75,0 C95.0333054,0 113.867366,7.80151007 128.033054,21.9669463 C142.19849,36.1326342 150,54.9669463 150,75 C150,95.0330537 142.19849,113.867114 128.033054,128.032802 C113.867366,142.19849 95.0330537,150 75,150" id="Fill-1" fill="#07AD88"></path>
        <path d="M94.5705435,76.1913588 C98.6946788,76.1918013 102.57567,77.8044577 105.499158,80.7319336 C108.413559,83.6505585 110.011836,87.5135875 109.999934,91.6096197 C109.974157,100.096202 103.053092,107 94.5707652,107 L94.5707652,107 C90.4488464,106.999336 86.5716228,105.391105 83.6521243,102.471374 C80.7355071,99.5547406 79.1332406,95.6872861 79.1398693,91.5815177 C79.1540751,83.0949355 86.0751396,76.1913588 94.568992,76.1913588 L94.568992,76.1913588 Z M94.5814041,78.1239797 L94.5669972,78.1239797 C87.1423569,78.1239797 81.0912462,84.1528541 81.0757008,91.5700114 C81.0681952,95.16928 82.4661057,98.5554601 85.011912,101.105219 C87.5592698,103.656305 90.9495408,105.063396 94.5585747,105.067379 L94.5585747,105.067379 L94.5729816,105.067379 C101.993189,105.067379 108.043856,99.0385047 108.063855,91.6211261 C108.073557,88.0258405 106.677198,84.6412093 104.132056,82.0907869 C101.583369,79.536603 98.1915462,78.1279626 94.5814041,78.1239797 L94.5814041,78.1239797 Z M90.7559123,43 C91.8747727,43 92.6986245,43.5883718 92.9599431,44.5739332 C93.0126945,44.7733025 93.0406217,44.9925866 93.0406217,45.2076664 C93.0450545,54.3715732 93.0444012,63.53548 93.0437247,72.6993868 C93.043503,73.0934786 92.8941148,73.4322515 92.6339044,73.6287442 C92.4062757,73.8008966 92.1150351,73.8486921 91.8120474,73.7632797 C91.4192937,73.6524207 91.1522123,73.321835 91.1149761,72.8998624 C91.1069969,72.8111309 91.1078835,72.7215143 91.1085484,72.632119 L91.1085484,44.9494378 L58.485834,44.9494378 L58.485834,97.4335708 L75.6180508,97.4337921 C76.1788109,97.4337921 76.5400911,97.6497571 76.6916958,98.0750487 C76.791214,98.3551836 76.7592973,98.6572248 76.6043679,98.9041683 C76.4445624,99.158414 76.174378,99.3239281 75.8631894,99.3580045 C75.7827325,99.3666343 75.6982861,99.3668555 75.6085201,99.3657492 L73.0523977,99.3659194 C72.9821144,99.3659529 72.9107605,99.3659902 72.8385021,99.3660311 L71.7075561,99.3668719 C71.6304059,99.3669405 71.5531819,99.367011 71.4760502,99.3670831 L70.7888398,99.3677682 C70.7137565,99.3678474 70.6392638,99.3679272 70.5655278,99.3680074 L69.7276493,99.3689665 C69.6626248,99.3690445 69.5990215,99.3691215 69.5370055,99.3691973 L69.0262037,99.3698375 C68.9752065,99.369903 68.926295,99.3699663 68.8796352,99.3700271 L68.277192,99.3708385 C68.277192,99.3708385 68.2210451,99.3873191 68.1303465,99.4139377 L67.9092789,99.4788128 C67.4853801,99.6032024 66.8375385,99.7932536 66.765578,99.8140535 C63.3034942,100.812891 59.8394157,101.803985 56.3746722,102.794193 C54.9918335,103.190055 53.8851636,102.573802 53.4868688,101.18729 L53.4868688,101.18729 L40.5020599,55.9486043 C40.4455406,55.7510052 40.3876914,55.5534061 40.3298423,55.355807 C40.253375,55.0942592 40.1769077,54.8327115 40.1026569,54.5705 C39.7420416,53.2952888 40.3513418,52.1940003 41.6187038,51.8297807 C45.1574765,50.8127981 48.697579,49.7993559 52.2374599,48.7859138 L52.2374599,48.7859138 L52.7536695,48.6381017 C52.8944136,48.5978296 53.0282867,48.5779148 53.1535158,48.5779148 C53.4877554,48.5779148 53.7610428,48.7197524 53.9432344,48.9941341 C54.1872647,49.3612303 54.1648786,49.842726 53.8915912,50.1142311 C53.7182654,50.2863835 53.4593849,50.4344169 53.1991745,50.5100931 C50.8222612,51.2004729 48.4021272,51.891074 46.0615635,52.5586624 L46.0615635,52.5586624 L43.8446774,53.1915106 C43.4519237,53.3039185 43.0593916,53.4178755 42.6557774,53.5349303 L42.6557774,53.5349303 L41.8793575,53.7599675 L55.4579514,101.048329 L60.001216,99.7498836 L61.3889309,99.3661917 L58.8178572,99.3661917 C57.4292557,99.3642002 56.5322613,98.4638299 56.5322613,97.0726704 L56.5322613,97.0726704 L56.5320396,45.2975043 C56.5322613,43.8802342 57.4168436,43 58.8411298,43 L58.8411298,43 Z M100.86912,85.9196289 C101.233947,85.5543029 101.574835,85.4469843 101.974903,85.5717837 C102.269247,85.6636131 102.493773,85.8831184 102.591075,86.1743171 C102.689263,86.4677285 102.641166,86.7808335 102.459196,87.0333089 C102.391595,87.1269085 102.30471,87.2160825 102.221593,87.2990609 C98.8676721,90.6489518 95.5137508,93.9988428 92.1582779,97.3474061 C91.7373754,97.7676084 91.1970066,97.9983989 90.6362466,97.9983989 L90.6362466,97.9983989 C90.0524355,97.9959648 89.4983248,97.7530042 89.0667834,97.3144361 C88.6363502,96.8774168 88.2017057,96.4450443 87.7668397,96.0124506 C87.4104356,95.6577458 87.0540316,95.3032623 86.7000657,94.9459023 C86.3159562,94.5582275 86.2589936,94.0329192 86.5582134,93.6386062 C86.7306526,93.4115774 86.974018,93.2754929 87.2439808,93.2557994 C87.2672534,93.2540292 87.2900828,93.2531441 87.3133554,93.2531441 C87.5775554,93.2531441 87.8353277,93.3642244 88.0454465,93.5700107 C88.6354636,94.1482038 89.2270322,94.7418862 89.8026424,95.3200793 L89.8026424,95.3200793 L89.8024208,95.319858 L90.6333652,96.1491989 L91.0125986,95.7688261 C91.0163665,95.7648432 91.0201345,95.7593113 91.0241241,95.7555496 L91.0241241,95.7555496 L94.6045659,92.179515 C96.6935633,90.0937714 98.7825607,88.0080278 100.86912,85.9196289 Z M65.1674728,87.4738741 L66.4611274,87.4751741 L67.5569368,87.4762805 L69.859156,87.4751741 C70.9292546,87.4736252 71.9993532,87.4722975 73.0690085,87.4791571 C73.4433657,87.4818124 73.7753889,87.6590541 73.9569156,87.9531293 C74.1269167,88.2286174 74.1388855,88.5587606 73.9899406,88.8590316 C73.8073057,89.2270128 73.5016582,89.4064673 73.0559315,89.407795 C72.3205158,89.4097865 71.5853217,89.4093251 70.8494627,89.4091226 L70.8494627,89.4091226 L70.0087659,89.4089014 L68.3233827,89.4089014 C66.8627469,89.4095652 65.4018894,89.4091226 63.9414752,89.4082375 C63.4053176,89.4075737 63.035615,89.1679323 62.9006336,88.733347 C62.807543,88.4341824 62.8547532,88.1248392 63.0302955,87.8849765 C63.2171416,87.6298457 63.5245623,87.4815911 63.873652,87.4787145 C64.7362916,87.4720762 65.5987095,87.4736252 66.4611274,87.4751741 Z M66.4329564,81.8307218 C67.2745398,81.8307218 68.0580523,81.8338196 68.8138594,81.8402366 C69.3522333,81.8448834 69.771806,82.2681836 69.7689393,82.8038918 C69.7660432,83.3391574 69.3502385,83.7505087 68.8018906,83.7611299 C68.2311565,83.7721937 67.6491186,83.7697596 67.0863638,83.7673256 C66.8279265,83.7662192 66.5670512,83.7651129 66.3119386,83.7653341 L65.9471953,83.765998 L65.9471953,83.765998 L65.5822857,83.7673256 C65.0142113,83.7699809 64.4264107,83.7721937 63.8494706,83.7626788 C63.5114631,83.7571469 63.2126866,83.6095561 63.02983,83.3575232 C62.8551743,83.1169967 62.8079641,82.8085385 62.8999465,82.5107016 C63.0251755,82.1057673 63.3793631,81.8422281 63.8020387,81.8395728 C64.7520062,81.8335983 65.6197435,81.8307218 66.4329564,81.8307218 Z M97.2606402,49.2389977 C97.3661429,49.2389977 97.4751919,49.2549295 97.5842409,49.2872358 C98.5488368,49.5726812 99.5112163,49.8669778 100.473374,50.1612743 L100.473374,50.1612743 L102.692033,50.8372712 C103.686551,51.1399762 104.681069,51.4424599 105.676474,51.7429521 C106.786025,52.0781846 107.430345,53.1962901 107.143316,54.2880638 C106.527588,56.6293807 105.888587,59.0067655 105.270421,61.3058188 L105.270421,61.3058188 L104.613025,63.7529054 C103.7147,67.1027963 102.815489,70.4529086 101.914949,73.802357 C101.875053,73.9510542 101.833605,74.1048407 101.768442,74.2376061 C101.55655,74.6699785 101.050979,74.8704542 100.593062,74.7051614 C100.104558,74.5283622 99.8591978,74.0413346 99.9957307,73.5206732 C100.336176,72.2235558 100.684158,70.9286511 101.032361,69.6335251 L101.032361,69.6335251 L105.200604,54.1119284 C105.217005,54.0504138 105.229639,53.9877928 105.243381,53.9189761 L105.243381,53.9189761 L105.299014,53.651454 L100.96077,52.3262345 C99.6683621,51.9321427 98.3759543,51.5378297 97.084433,51.1401974 C96.5192401,50.9662748 96.2171389,50.5075706 96.332394,49.9986367 C96.3948976,49.7227061 96.5533733,49.4981114 96.7790072,49.3660099 C96.9228543,49.2817039 97.0877577,49.2389977 97.2606402,49.2389977 Z M64.0028041,70.2167854 L64.0659728,70.2170067 L76.873023,70.2165641 C79.4556222,70.2165641 82.0397729,70.2163429 84.623702,70.217228 C85.1733799,70.2174492 85.5492886,70.4610736 85.6811669,70.9034035 C85.7653917,71.1857512 85.7248308,71.4720818 85.5665768,71.7101743 C85.406328,71.9511434 85.1407981,72.1084703 84.8384753,72.1414404 C84.7637812,72.1496276 84.6873139,72.1489638 84.6128415,72.1489638 L84.5818113,72.1489638 C77.7201474,72.1494063 70.8584836,72.1494063 63.9965981,72.1489638 C63.5854479,72.1489638 63.0605943,72.027926 62.8954693,71.4510606 C62.8141258,71.1678278 62.8577898,70.8821611 63.0180386,70.6467239 C63.1807255,70.4077462 63.4484718,70.2535172 63.7523461,70.223645 C63.8135199,70.2176705 63.875137,70.2165641 63.9369758,70.2165641 L63.9369758,70.2165641 L64.0028041,70.2167854 Z M84.6237685,64.2428095 C85.1734463,64.2430308 85.5491334,64.4866552 85.6812334,64.9289851 C85.7654582,65.2113327 85.7246757,65.4978846 85.5664217,65.7357558 C85.4063945,65.9767249 85.1408646,66.1340519 84.8383202,66.1670219 C84.7636261,66.1752091 84.6873804,66.174324 84.6129079,66.1745453 L84.6129079,66.1745453 L63.9966646,66.1745453 C63.5855144,66.1745453 63.0606608,66.0535075 62.8953141,65.4766421 C62.8141923,65.1934094 62.8576346,64.9077426 63.0181051,64.6723054 C63.180792,64.4333278 63.4483166,64.2790987 63.7524126,64.2492265 C63.8135864,64.243252 63.8752035,64.2421457 63.9370423,64.2421457 L63.9370423,64.2421457 Z M84.5820551,58.2680149 C84.9934269,58.2680149 85.5180589,58.3890526 85.6834055,58.965918 C85.7645273,59.2491508 85.7210851,59.5348175 85.5606146,59.770476 C85.3979277,60.0094537 85.1301814,60.1636827 84.8267504,60.1933337 C84.7436337,60.2012996 84.6598522,60.2006358 84.5751841,60.2001932 L84.5751841,60.2001932 L84.512902,60.1999719 L71.549371,60.2004283 C69.0177499,60.2001932 66.4865722,60.2004283 63.9553944,60.1997507 C63.4052733,60.1995294 63.0298079,59.955905 62.8977079,59.5135751 C62.8134831,59.2312274 62.854044,58.9448968 63.0120763,58.7070256 C63.1723252,58.4662778 63.437855,58.3089508 63.7406211,58.2755382 C63.8150936,58.267351 63.8897877,58.2677936 63.966255,58.2680149 Z M66.6292889,52.6246247 C67.1222258,52.6224119 67.632451,52.6204204 68.1327021,52.629714 C68.6285204,52.6392288 69.0048724,52.9611848 69.091092,53.4499826 C69.1644563,53.8673083 68.9115602,54.314285 68.5150385,54.4676289 C68.3740728,54.5220627 68.2065097,54.5523775 68.0429362,54.5534839 C67.5056704,54.5566309 66.9481338,54.5585104 66.3534753,54.5592194 L65.4315396,54.5594173 C64.9545447,54.5590895 64.4519293,54.5581307 63.9165845,54.5565817 C63.5945354,54.5556966 63.3099441,54.4470503 63.1146755,54.2505576 C62.941128,54.0759712 62.8502538,53.8467297 62.8513521,53.5878372 C62.8542434,53.0251334 63.2962022,52.6294927 63.9261152,52.6261736 C64.1958563,52.6246247 64.4658191,52.6241821 64.7355602,52.6241821 L65.3552776,52.6248459 L65.9754383,52.6266161 L65.9754383,52.6266161 Z" id="Combined-Shape" fill="#27245C"></path>
    </g>
</svg>