<?xml version="1.0" encoding="UTF-8" standalone="no"?>
<!DOCTYPE svg PUBLIC "-//W3C//DTD SVG 1.1//EN" "http://www.w3.org/Graphics/SVG/1.1/DTD/svg11.dtd">
<svg version="1.1" xmlns="http://www.w3.org/2000/svg" xmlns:xlink="http://www.w3.org/1999/xlink" preserveAspectRatio="xMidYMid meet" viewBox="0 0 128 128" width="128" height="128"><defs><path d="M58.2 16.13L59.77 16.29L61.33 16.51L62.86 16.79L64.37 17.13L65.86 17.53L67.33 17.99L68.77 18.5L70.18 19.06L71.57 19.68L72.92 20.35L74.25 21.07L75.54 21.84L76.81 22.66L78.03 23.52L79.23 24.43L80.38 25.39L81.5 26.38L82.58 27.42L83.62 28.5L84.61 29.62L85.57 30.77L86.48 31.97L87.34 33.19L88.16 34.46L88.93 35.75L89.65 37.08L90.32 38.43L90.94 39.82L91.5 41.23L92.01 42.67L92.47 44.14L92.87 45.63L93.21 47.14L93.49 48.67L93.71 50.23L93.87 51.8L93.97 53.39L94 55L93.97 56.61L93.87 58.2L93.71 59.77L93.49 61.33L93.21 62.86L92.87 64.37L92.47 65.86L92.01 67.33L91.5 68.77L90.94 70.18L90.32 71.57L89.65 72.92L88.93 74.25L88.16 75.54L87.37 76.76L112 101.39L101.39 112L76.76 87.37L75.54 88.16L74.25 88.93L72.92 89.65L71.57 90.32L70.18 90.94L68.77 91.5L67.33 92.01L65.86 92.47L64.37 92.87L62.86 93.21L61.33 93.49L59.77 93.71L58.2 93.87L56.61 93.97L55 94L53.39 93.97L51.8 93.87L50.23 93.71L48.67 93.49L47.14 93.21L45.63 92.87L44.14 92.47L42.67 92.01L41.23 91.5L39.82 90.94L38.43 90.32L37.08 89.65L35.75 88.93L34.46 88.16L33.19 87.34L31.97 86.48L30.77 85.57L29.62 84.61L28.5 83.62L27.42 82.58L26.38 81.5L25.39 80.38L24.43 79.23L23.52 78.03L22.66 76.81L21.84 75.54L21.07 74.25L20.35 72.92L19.68 71.57L19.06 70.18L18.5 68.77L17.99 67.33L17.53 65.86L17.13 64.37L16.79 62.86L16.51 61.33L16.29 59.77L16.13 58.2L16.03 56.61L16 55L16.03 53.39L16.13 51.8L16.29 50.23L16.51 48.67L16.79 47.14L17.13 45.63L17.53 44.14L17.99 42.67L18.5 41.23L19.06 39.82L19.68 38.43L20.35 37.08L21.07 35.75L21.84 34.46L22.66 33.19L23.52 31.97L24.43 30.77L25.39 29.62L26.38 28.5L27.42 27.42L28.5 26.38L29.62 25.39L30.77 24.43L31.97 23.52L33.19 22.66L34.46 21.84L35.75 21.07L37.08 20.35L38.43 19.68L39.82 19.06L41.23 18.5L42.67 17.99L44.14 17.53L45.63 17.13L47.14 16.79L48.67 16.51L50.23 16.29L51.8 16.13L53.39 16.03L55 16L56.61 16.03L58.2 16.13ZM53.03 31.02L52.06 31.11L51.1 31.25L50.15 31.43L49.22 31.64L48.3 31.88L47.39 32.16L46.51 32.48L45.63 32.83L44.78 33.21L43.94 33.62L43.12 34.07L42.32 34.54L41.55 35.05L40.79 35.58L40.05 36.14L39.34 36.73L38.65 37.34L37.98 37.98L37.34 38.65L36.73 39.34L36.14 40.05L35.58 40.79L35.05 41.55L34.54 42.32L34.07 43.12L33.62 43.94L33.21 44.78L32.83 45.63L32.48 46.51L32.16 47.39L31.88 48.3L31.64 49.22L31.43 50.15L31.25 51.1L31.11 52.06L31.02 53.03L30.96 54.01L30.94 55L30.96 55.99L31.02 56.97L31.11 57.94L31.25 58.9L31.43 59.85L31.64 60.78L31.88 61.7L32.16 62.61L32.48 63.49L32.83 64.37L33.21 65.22L33.62 66.06L34.07 66.88L34.54 67.68L35.05 68.45L35.58 69.21L36.14 69.95L36.73 70.66L37.34 71.35L37.98 72.02L38.65 72.66L39.34 73.27L40.05 73.86L40.79 74.42L41.55 74.95L42.32 75.46L43.12 75.93L43.94 76.38L44.78 76.79L45.63 77.17L46.51 77.52L47.39 77.84L48.3 78.12L49.22 78.36L50.15 78.57L51.1 78.75L52.06 78.89L53.03 78.98L54.01 79.04L55 79.06L55.99 79.04L56.97 78.98L57.94 78.89L58.9 78.75L59.85 78.57L60.78 78.36L61.7 78.12L62.61 77.84L63.49 77.52L64.37 77.17L65.22 76.79L66.06 76.38L66.88 75.93L67.68 75.46L68.45 74.95L69.21 74.42L69.95 73.86L70.66 73.27L71.35 72.66L72.02 72.02L72.66 71.35L73.27 70.66L73.86 69.95L74.42 69.21L74.95 68.45L75.46 67.68L75.93 66.88L76.38 66.06L76.79 65.22L77.17 64.37L77.52 63.49L77.84 62.61L78.12 61.7L78.36 60.78L78.57 59.85L78.75 58.9L78.89 57.94L78.98 56.97L79.04 55.99L79.06 55L79.04 54.01L78.98 53.03L78.89 52.06L78.75 51.1L78.57 50.15L78.36 49.22L78.12 48.3L77.84 47.39L77.52 46.51L77.17 45.63L76.79 44.78L76.38 43.94L75.93 43.12L75.46 42.32L74.95 41.55L74.42 40.79L73.86 40.05L73.27 39.34L72.66 38.65L72.02 37.98L71.35 37.34L70.66 36.73L69.95 36.14L69.21 35.58L68.45 35.05L67.68 34.54L66.88 34.07L66.06 33.62L65.22 33.21L64.37 32.83L63.49 32.48L62.61 32.16L61.7 31.88L60.78 31.64L59.85 31.43L58.9 31.25L57.94 31.11L56.97 31.02L55.99 30.96L55 30.94L54.01 30.96L53.03 31.02Z" id="a34tVPSqV3"></path></defs><g><g><g><use xlink:href="#a34tVPSqV3" opacity="1" fill="#27245c" fill-opacity="1"></use></g></g></g></svg>