<?xml version="1.0" encoding="utf-8"?>
<!-- Generator: Adobe Illustrator 16.0.0, SVG Export Plug-In . SVG Version: 6.00 Build 0)  -->
<!DOCTYPE svg PUBLIC "-//W3C//DTD SVG 1.1//EN" "http://www.w3.org/Graphics/SVG/1.1/DTD/svg11.dtd">
<svg version="1.1" id="Layer_3" xmlns="http://www.w3.org/2000/svg" xmlns:xlink="http://www.w3.org/1999/xlink" x="0px" y="0px"
	 width="600px" height="600px" viewBox="-224.5 -224.5 600 600" enable-background="new -224.5 -224.5 600 600"
	 xml:space="preserve">
<path fill="#27245C" d="M240.451,134.801l-83.115-83.116c14.866-16.25,23.014-37.159,23.014-59.324
	c0-23.504-9.153-45.602-25.773-62.222c-16.619-16.62-38.717-25.773-62.221-25.772c-23.503,0-45.604,9.154-62.223,25.772
	C3.522-43.249-2.434-3.699,12.236,28.721l-30.66,17.702c-0.117,0.067-0.227,0.144-0.334,0.224c-0.011,0.008-0.022,0.014-0.033,0.022
	c-0.165,0.125-0.313,0.267-0.452,0.417c-0.031,0.034-0.061,0.068-0.09,0.103c-0.274,0.322-0.487,0.689-0.629,1.087
	c-0.018,0.048-0.035,0.096-0.05,0.145c-0.059,0.19-0.106,0.383-0.132,0.583c-0.004,0.029-0.003,0.058-0.006,0.086
	c-0.012,0.12-0.024,0.241-0.024,0.363v31.073l-55.572,32.086c-0.111,0.064-0.216,0.138-0.318,0.213
	c-0.017,0.013-0.036,0.022-0.053,0.035c-0.163,0.124-0.309,0.264-0.445,0.412c-0.033,0.035-0.064,0.072-0.096,0.109
	c-0.273,0.321-0.484,0.688-0.626,1.084c-0.018,0.049-0.035,0.097-0.05,0.146c-0.059,0.19-0.106,0.384-0.132,0.583
	c-0.004,0.029-0.003,0.058-0.006,0.087c-0.012,0.12-0.024,0.24-0.024,0.362v66.189c0,1.25,0.667,2.406,1.75,3.031l57.321,33.096
	c0.107,0.062,0.218,0.112,0.329,0.162c0.026,0.011,0.049,0.025,0.076,0.037c0.185,0.077,0.376,0.133,0.57,0.177
	c0.051,0.012,0.102,0.021,0.154,0.03c0.206,0.037,0.414,0.063,0.622,0.063s0.416-0.025,0.622-0.063
	c0.052-0.01,0.104-0.019,0.155-0.03c0.193-0.044,0.384-0.1,0.569-0.177c0.026-0.012,0.05-0.026,0.076-0.038
	c0.111-0.049,0.222-0.1,0.328-0.161l55.573-32.085l55.571,32.085c0.108,0.063,0.22,0.114,0.333,0.164
	c0.023,0.011,0.046,0.024,0.07,0.034c0.186,0.078,0.377,0.134,0.571,0.178c0.051,0.012,0.102,0.021,0.153,0.03
	c0.206,0.037,0.413,0.063,0.622,0.063s0.416-0.025,0.622-0.063c0.052-0.01,0.103-0.019,0.153-0.03
	c0.194-0.044,0.386-0.1,0.571-0.178c0.024-0.01,0.047-0.023,0.07-0.034c0.113-0.05,0.225-0.102,0.333-0.164l57.323-33.096
	c1.083-0.625,1.75-1.781,1.75-3.031v-66.189c0-0.121-0.012-0.239-0.023-0.358c-0.004-0.03-0.003-0.062-0.007-0.092
	c-0.025-0.198-0.072-0.392-0.131-0.58c-0.016-0.05-0.033-0.099-0.051-0.148c-0.143-0.396-0.354-0.763-0.627-1.084
	c-0.031-0.036-0.062-0.072-0.094-0.106c-0.137-0.149-0.284-0.29-0.447-0.415c-0.015-0.011-0.03-0.019-0.045-0.029
	c-0.104-0.077-0.211-0.152-0.325-0.218l-55.572-32.085v-0.652c18.742-1.918,36.207-9.724,50.209-22.534l83.115,83.115
	c0.78,0.781,1.805,1.172,2.828,1.172s2.048-0.391,2.828-1.172C242.014,138.896,242.014,136.362,240.451,134.801z M-13.174,55.518
	l50.321,29.052v58.108l-50.321-29.055V55.518z M-16.675,144.698l-50.322-29.054l21.66-12.506l26.913,15.536l23.412,13.518
	L-16.675,144.698z M-20.174,109.582l-18.163-10.485l18.163-10.486V109.582z M-70.496,179.813v-58.105l50.321,29.052v58.108
	L-70.496,179.813z M-13.175,208.868v-58.107l25.164-14.526l25.159,14.525l0.001,29.054L-13.175,208.868z M40.648,78.508
	L-9.675,49.454l21.66-12.506l7.045,4.067c3.183,4.794,6.879,9.345,11.102,13.567c6.869,6.868,14.684,12.439,23.137,16.638
	L40.648,78.508z M61.248,74.698c9.811,3.702,20.306,5.657,31.106,5.658c0.003,0,0.004,0,0.007,0c0.706,0,1.406-0.032,2.109-0.049
	v33.316l-26.49,15.294c-0.384,0.141-0.743,0.344-1.061,0.613l-22.772,13.147V84.57L61.248,74.698z M94.47,208.868l-50.321-29.055
	l-0.001-29.054l25.099-14.49l25.224,14.495V208.868z M97.966,144.7l-21.712-12.477l21.717-12.538l21.661,12.506L97.966,144.7z
	 M151.793,179.813l-50.323,29.055V150.76l26.867-15.511c0.016-0.009,0.031-0.018,0.047-0.027l23.409-13.514V179.813z
	 M148.294,115.645l-21.661,12.506l-25.162-14.527V88.611L148.294,115.645z M148.92,48.925c-15.11,15.11-35.194,23.431-56.559,23.43
	c-0.001,0-0.005,0-0.007,0c-21.369-0.001-41.458-8.322-56.565-23.43C4.6,17.736,4.6-33.014,35.79-64.203
	c15.109-15.109,35.198-23.43,56.566-23.43c21.367,0,41.456,8.321,56.564,23.43c15.109,15.108,23.43,35.197,23.43,56.564
	C172.35,13.729,164.029,33.817,148.92,48.925z"/>
<path fill="#27245C" d="M-2.462,165.741c-1.208,0-2.382-0.626-3.031-1.746c-0.97-1.672-0.4-3.813,1.272-4.783l14.813-8.586
	c1.674-0.97,3.815-0.397,4.783,1.273c0.969,1.673,0.399,3.814-1.273,4.783l-14.812,8.586
	C-1.263,165.589-1.866,165.741-2.462,165.741z"/>
<path fill="#27245C" d="M112.182,165.741c-1.207,0-2.382-0.626-3.031-1.746c-0.969-1.672-0.399-3.813,1.273-4.783l14.813-8.586
	c1.673-0.969,3.813-0.398,4.783,1.273c0.969,1.673,0.399,3.814-1.273,4.783l-14.813,8.586
	C113.382,165.589,112.778,165.741,112.182,165.741z"/>
<path fill="#27245C" d="M54.86,99.551c-1.208,0-2.382-0.626-3.031-1.746c-0.97-1.672-0.4-3.813,1.272-4.783l14.813-8.586
	c1.673-0.969,3.815-0.398,4.783,1.273c0.969,1.673,0.399,3.814-1.273,4.783l-14.812,8.586C56.059,99.398,55.456,99.551,54.86,99.551
	z"/>
<path fill="#27245C" d="M36.2-44.621c-0.819,0-1.646-0.251-2.358-0.772c-1.783-1.304-2.171-3.807-0.867-5.59
	c2.227-3.044,4.717-5.949,7.402-8.634c10.419-10.419,23.545-17.4,37.957-20.188c2.18-0.421,4.269,1,4.687,3.167
	c0.42,2.169-0.998,4.268-3.167,4.687c-12.838,2.483-24.533,8.704-33.819,17.99c-2.395,2.396-4.616,4.986-6.602,7.701
	C38.648-45.188,37.432-44.621,36.2-44.621z"/>
<path fill="#07AD88" d="M75.498,373.5c-79.598,0-154.432-30.998-210.717-87.283S-222.502,155.098-222.502,75.5
	s30.998-154.433,87.283-210.718C-78.933-191.502-4.099-222.5,75.498-222.5s154.434,30.998,210.719,87.282
	C342.502-78.933,373.5-4.098,373.5,75.5s-30.998,154.432-87.283,210.717S155.096,373.5,75.498,373.5L75.498,373.5z M75.498-212.5
	c-158.805,0-288,129.196-288,288c0,158.805,129.195,288,288,288S363.5,234.305,363.5,75.5C363.5-83.304,234.303-212.5,75.498-212.5
	L75.498-212.5z"/>
</svg>
