<?xml version="1.0" encoding="utf-8"?>
<svg viewBox="0 0 150 150" xmlns="http://www.w3.org/2000/svg">
  <g id="Icon-/-Sell-Products" stroke="none" stroke-width="1" fill="none" fill-rule="evenodd">
    <path d="M75,2.51677852 C35.0325503,2.51677852 2.51677852,35.0325503 2.51677852,75 C2.51677852,114.96745 35.0325503,147.483221 75,147.483221 C114.96745,147.483221 147.483221,114.96745 147.483221,75 C147.483221,35.0325503 114.96745,2.51677852 75,2.51677852 M75,150 C54.9669463,150 36.1328859,142.19849 21.967198,128.032802 C7.80151007,113.867114 -1.42108547e-14,95.0330537 -1.42108547e-14,75 C-1.42108547e-14,54.9669463 7.80151007,36.1326342 21.967198,21.9669463 C36.1328859,7.80151007 54.9669463,0 75,0 C95.0333054,0 113.867366,7.80151007 128.033054,21.9669463 C142.19849,36.1326342 150,54.9669463 150,75 C150,95.0330537 142.19849,113.867114 128.033054,128.032802 C113.867366,142.19849 95.0330537,150 75,150" id="Fill-1" style="fill: rgb(39, 36, 92);"/>
    <path d="M69.8068724,42 C69.980864,42 70.1591753,42.0542558 70.352126,42.1653964 C74.3668909,44.4809459 78.687641,46.9716913 83.0806276,49.4954204 C86.3636682,51.3814651 89.6483886,53.2644027 92.933109,55.1473403 L92.933109,55.1473403 L97.5228861,57.7786248 L97.8372708,57.95884 C98.2894089,58.2179291 98.7566662,58.4856227 99.212404,58.7533163 C99.5404681,58.9461991 99.6734216,59.1887964 99.6712617,59.5903368 C99.666222,60.628486 99.6640621,61.6751798 99.6633121,62.717452 L99.6638221,65.8180369 C99.6643021,66.5847878 99.664782,67.3512997 99.6645421,68.1180506 L99.664812,69.1725721 L99.664812,69.1725721 L99.665262,70.2270936 L99.665262,70.2270936 L99.665412,73.3720152 C99.6643021,74.4290464 99.6614222,75.4903798 99.6549425,76.5427502 C99.6511027,77.1268958 99.8649323,77.5198318 100.348749,77.8171629 C103.021979,79.4598932 105.037401,81.7505855 106.339338,84.6256624 C107.677033,87.5793743 108.043255,90.7350515 107.427205,94.0052155 C106.950348,96.5368319 105.87832,98.8385188 104.24088,100.846699 C103.848259,101.328547 103.884737,101.805854 104.348875,102.265714 C105.223632,103.131177 106.09503,103.999747 106.966667,104.868078 C107.10946,105.010529 107.254893,105.15537 107.400566,105.300212 C107.405606,105.304992 107.411606,105.308338 107.416406,105.313357 L107.416406,105.313357 L109.166161,107.055995 C109.247517,107.136713 109.31534,107.203997 109.366288,107.254537 L109.44469,107.332308 C109.462664,107.350136 109.472146,107.35954 109.472146,107.35954 L109.472146,107.35954 L109.471426,107.359779 L109.769251,107.656393 C110.076916,107.962807 110.076916,108.464015 109.769251,108.77019 C109.461826,109.076603 108.958571,109.076603 108.651146,108.77019 L108.651146,108.77019 L106.2983,106.426915 C106.269021,106.397994 106.245262,106.365728 106.221744,106.333461 C106.164626,106.276815 106.107749,106.21993 106.049672,106.162089 C105.118757,105.2352 104.187842,104.308311 103.260767,103.378076 C103.083656,103.200251 102.836228,102.996135 102.493765,102.996135 C102.193059,102.996135 101.958351,103.155078 101.807878,103.274823 C99.3950352,105.195285 96.7518036,106.315535 93.9520996,106.604501 C93.2786923,106.674053 92.6153645,106.709188 91.9801153,106.709188 C90.4792282,106.709188 89.0416981,106.511047 87.7068829,106.12074 C85.4034748,105.446965 83.3446148,104.320979 81.5871802,102.774571 C81.3330325,102.550855 81.0803248,102.442105 80.8148977,102.442105 C80.5425109,102.442105 80.3063624,102.559221 80.1311709,102.66104 C78.3077395,103.721059 76.4468699,104.788965 74.6474373,105.821736 C73.9178727,106.240485 73.1883082,106.658996 72.4592236,107.078223 C72.3241102,107.156141 72.1868368,107.23143 72.0498035,107.30648 C71.6802214,107.509879 71.29816,107.719971 70.9422573,107.980016 C70.6038737,108.227393 70.2825293,108.347616 69.960465,108.347616 C69.6369607,108.347616 69.2760182,108.227632 68.8569986,107.980733 C65.3793275,105.930965 61.8215003,103.886455 58.3807875,101.909347 L58.3807875,101.909347 L57.2420428,101.254931 C55.0046315,99.9688071 52.7650603,98.6869851 50.5252491,97.405163 C48.1896825,96.0683682 45.7749198,94.686161 43.4026351,93.3218798 C42.8453821,93.0013645 42.2847694,92.6586211 41.7426357,92.3271113 C41.2324205,92.0152005 40.7049261,91.6927731 40.1767118,91.3863595 C40.0343987,91.3039004 39.9986404,91.2558589 40.000039,91.0512645 C40.0221593,87.5889348 40.0406384,83.8393125 40.0562376,79.5875257 C40.0826363,72.4941237 40.1051952,66.0864475 40.1176746,59.5011853 C40.1181546,59.2117416 40.1896711,59.0910404 40.4500585,58.9387897 C42.3670854,57.8190179 44.3112309,56.6731937 46.1915396,55.5648945 C48.221121,54.3686388 50.3198191,53.131751 52.3889985,51.9247397 C55.2832579,50.2368361 58.2346346,48.5345917 61.0890559,46.8885151 C62.3141964,46.1819953 63.5395769,45.4754754 64.7642374,44.7677605 L64.7642374,44.7677605 L69.2964172,42.1517727 C69.4737686,42.0497145 69.6408005,42 69.8068724,42 Z M41.6396807,60.7930458 L41.6396807,63.0753727 L41.6406407,64.6999381 C41.6418406,66.4683889 41.6428006,68.2368396 41.6413606,70.0052904 C41.6363209,76.1232839 41.6291212,82.2410384 41.6204816,88.3592709 L41.6204816,88.3592709 L41.6190417,88.3564028 L41.6190417,90.5330862 L43.3927955,91.532874 C43.4189543,91.5481708 43.446073,91.5634675 43.4719917,91.5790033 C43.6803016,91.7008995 43.8886115,91.8230347 44.0983613,91.9430188 C44.9325607,92.419131 45.7667602,92.8947651 46.6011997,93.3703992 C48.1037667,94.2267797 49.6063337,95.0833992 51.1069808,95.9436038 C52.9066534,96.9756582 54.7044061,98.0115368 56.5019187,99.0474154 L56.5019187,99.0474154 L58.8317256,100.389468 L60.675796,101.451399 C62.2517994,102.358928 63.8275629,103.266697 65.4045263,104.172792 C66.0049771,104.517686 66.6090278,104.861385 67.2289177,105.214167 L67.2289177,105.214167 L67.8622469,105.57412 L68.3604627,105.857827 L69.0199507,106.233315 L69.0199507,106.232837 L69.1380249,106.300238 L69.1380249,103.865661 L69.1452246,102.902681 C69.1661036,100.095723 69.1874625,97.1931593 69.198982,94.3379203 C69.2093015,91.7953093 69.2172211,89.2526983 69.2251407,86.7103262 C69.2345002,83.6361522 69.2438598,80.5622172 69.2578057,77.4880432 C69.2578057,77.4617518 69.2565792,77.4330704 69.2556192,77.4051059 L69.2556192,77.4051059 L69.2578057,76.6586711 L67.4907449,75.6684438 C66.7412614,75.2434802 65.9939377,74.8127804 65.2634131,74.391402 L65.2634131,74.391402 L64.5933657,74.0049194 L64.5933657,74.0049194 L59.995909,71.3540358 C58.4175057,70.4433996 56.8391024,69.5327634 55.2602191,68.6230832 C53.2709557,67.4772591 51.2802524,66.333825 49.2897891,65.190152 L49.2897891,65.190152 L48.0934472,64.5027531 L47.9297752,64.4085823 C46.5841605,63.6356171 45.2020677,62.8413798 43.8254945,62.0543128 L43.8254945,62.0543128 L41.6396807,60.7930458 Z M98.1245369,60.8193372 L94.1037722,63.1489884 C91.8982793,64.42125 89.6431089,65.7243441 87.3629796,67.0444081 C85.7478581,67.9791845 84.1339365,68.9156341 82.5197749,69.8518446 C80.8871342,70.7988106 79.2544935,71.7460157 77.6211329,72.6915477 L77.6211329,72.6915477 L76.8918083,73.1138821 C75.4046005,73.9750429 73.8739549,74.8605828 72.3502689,75.7281968 L72.3502689,75.7281968 L70.6897896,76.6586711 L70.743067,80.2268832 C70.7389872,86.547559 70.7363473,92.8684738 70.7337074,99.1893886 L70.7337074,99.1893886 L70.7313075,104.808086 L70.7313075,106.283747 L71.4510326,105.870495 L72.8499246,105.067175 L73.5934085,104.640299 L74.9433429,103.864705 C76.2663987,103.104407 77.6345722,102.318057 78.9823467,101.55035 C79.1131404,101.476018 79.4191255,101.301539 79.492082,100.961664 C79.5585587,100.652382 79.4001664,100.389707 79.2751325,100.218814 C77.7461668,98.1305648 76.7907732,95.7741442 76.4353505,93.2157584 C75.9666532,89.8437753 76.5366255,86.6622848 78.1289482,83.7597215 C80.581629,79.2894776 84.3576056,76.5652173 89.352723,75.6627075 C90.2306003,75.5040035 91.1255169,75.4236954 92.0129937,75.4236954 C93.6266754,75.4236954 95.2955543,75.6909109 96.9733128,76.2179327 C97.1629036,76.2776857 97.319856,76.323337 97.4717686,76.323337 C98.122377,76.323337 98.1228569,75.653386 98.1230969,75.3672885 C98.1234329,74.6755874 98.1237689,73.9680637 98.1240761,73.2477423 L98.1248825,71.0514101 C98.1249928,70.6799643 98.1250888,70.3060752 98.1251668,69.9301211 L98.1250084,65.3437479 L98.1250084,65.3437479 L98.1245369,64.1831939 L98.1245369,60.8193372 Z M92.0417923,76.9705819 L91.945077,76.9705819 C84.3057681,77.0069117 77.9911949,83.2016281 77.8690408,90.7797468 C77.8073638,94.6029848 79.2616932,98.2142191 81.9637219,100.948757 C84.6491915,103.666803 88.2108584,105.163736 91.9925947,105.163736 C92.0602714,105.163736 92.1267482,105.163258 92.1946649,105.162302 C95.918804,105.109002 99.4223938,103.622586 102.059866,100.977199 C104.730216,98.2985904 106.185505,94.7401778 106.157907,90.9578108 C106.101509,83.2453674 99.768937,76.9705819 92.0417923,76.9705819 L92.0417923,76.9705819 Z M85.7470661,85.4280978 L85.7470661,96.7161627 L84.1521036,96.7161627 L84.1521036,85.4280978 L85.7470661,85.4280978 Z M90.4685968,85.4280978 L90.4685968,96.7161627 L88.8736342,96.7161627 L88.8736342,85.4280978 L90.4685968,85.4280978 Z M95.1685285,85.4280978 L95.1685285,96.7161627 L93.5735659,96.7161627 L93.5735659,85.4280978 L95.1685285,85.4280978 Z M99.8600606,85.4280978 L99.8600606,96.7161627 L98.265098,96.7161627 L98.265098,85.4280978 L99.8600606,85.4280978 Z M55.6828385,51.8174233 L52.8106581,53.4783186 C51.6973521,54.1260414 50.5790065,54.7742423 49.4604208,55.4219652 C47.7524238,56.4112364 46.0441867,57.4005076 44.3366697,58.3904959 L44.3366697,58.3904959 L42.4338021,59.4746549 L44.4909822,60.6214351 C44.5406598,60.6496385 44.5920173,60.67832 44.6412149,60.7065234 C47.8069011,62.5292299 50.9716274,64.3531315 54.1365936,66.1770331 L54.1365936,66.1770331 L55.3667739,66.8859431 L58.2139956,68.5267613 C61.1228943,70.2031924 64.0337129,71.8810576 66.9471714,73.5613129 L66.9471714,73.5613129 L70.002223,75.3350219 L72.0486035,74.1456975 C73.56173,73.2670889 75.0755765,72.3891974 76.589183,71.5113058 C77.9251981,70.7369065 79.2607332,69.9620292 80.5960283,69.1869128 L80.5960283,69.1869128 L80.5962683,69.189542 L81.1148831,68.8859966 C81.2089586,68.8312628 81.303514,68.776768 81.3978294,68.7217952 L81.3978294,68.7217952 L81.4811053,68.6716027 L83.2224608,67.6522159 L80.4352362,66.0728238 L80.4354761,66.077843 L80.047655,65.8574739 C78.9679474,65.2444077 77.8517616,64.6105476 76.7576548,63.9812286 C74.2586562,62.5435707 71.7613375,61.1020885 69.2644988,59.6608454 C68.0335986,58.9505013 66.8026984,58.2399182 65.5715582,57.5298132 C64.8261544,57.0998304 64.0802706,56.6703256 63.3343868,56.2408208 C61.6064708,55.2450962 59.8343969,54.2245144 58.0707225,53.2020205 L58.0707225,53.2020205 L58.0760023,53.2015425 L56.8194233,52.4749456 C56.6295925,52.364522 56.4385618,52.2538594 56.249451,52.1436748 C56.2415314,52.1391336 56.2338518,52.1360264 56.2261721,52.1317242 L56.2261721,52.1317242 L55.6828385,51.8174233 Z M69.8210318,43.6510958 L66.9402117,45.3057768 L64.9766496,46.4367 C63.0135524,47.5684747 61.0571375,48.7005856 59.1355508,49.8130675 L59.1355508,49.8130675 L57.1981249,50.9345125 L59.2869835,52.1228808 L63.3194476,54.443091 L63.3194476,54.443091 L67.3522717,56.7628233 L71.2134441,58.983724 L73.2454254,60.1524933 C76.7814136,62.1864865 80.4366761,64.2890763 84.0300215,66.3644186 L84.0300215,66.3644186 L84.7675057,66.7898602 L86.9506797,65.5171206 C88.0894243,64.855774 89.228169,64.1941884 90.3676337,63.5342759 L90.3676337,63.5342759 L93.1975762,61.8944137 C93.7032316,61.6009068 94.2093671,61.3052488 94.7234221,61.0043325 L94.7234221,61.0043325 L97.3493745,59.4670065 L94.5623899,57.8876144 C94.0692139,57.6060581 93.5760378,57.3235457 93.0831018,57.0415114 C91.2747896,56.0070669 89.4050404,54.9377266 87.5693696,53.880576 C85.6069849,52.7507656 83.6146017,51.5968151 81.6872553,50.4811064 C80.4292364,49.7525975 79.1709776,49.0238495 77.9117587,48.2965356 L77.9117587,48.2965356 L77.3636254,47.9798445 C75.6858669,47.0104113 73.9661104,46.0170769 72.245394,45.033781 L72.245394,45.033781 L72.1707576,44.9909978 C72.1170002,44.9601652 72.0632428,44.9295717 72.0094854,44.8989781 L72.0094854,44.8989781 L69.8210318,43.6510958 Z" id="Combined-Shape" fill="#27245C"/>
  </g>
</svg>