<?xml version="1.0" encoding="utf-8"?>
<svg viewBox="-224.5 -224.5 600 600" xmlns="http://www.w3.org/2000/svg">
  <g>
    <g>
      <path d="M75.499,373.5c-79.598,0-154.432-30.998-210.717-87.283S-222.501,155.098-222.501,75.5 c0-79.598,30.998-154.432,87.283-210.717C-78.932-191.502-4.098-222.5,75.499-222.5s154.432,30.998,210.717,87.282 C342.501-78.933,373.499-4.098,373.499,75.5c0,79.598-30.998,154.432-87.283,210.717S155.097,373.5,75.499,373.5L75.499,373.5z M75.499-212.5c-158.804,0-288,129.196-288,288c0,158.805,129.196,288,288,288c158.803,0,288-129.195,288-288 C363.499-83.304,234.302-212.5,75.499-212.5L75.499-212.5z" style="fill: rgb(39, 36, 92);"/>
    </g>
  </g>
  <g>
    <path fill="#27245C" d="M106.198,109.714c-1.38,0-2.723-0.715-3.465-1.995c-1.107-1.911-0.456-4.358,1.455-5.467l32.002-18.548 c1.91-1.108,4.358-0.457,5.466,1.454c1.108,1.911,0.458,4.358-1.454,5.466l-32.002,18.55 C107.569,109.539,106.879,109.714,106.198,109.714z"/>
    <path fill="#27245C" d="M207.445,92.113c-1.383,0-2.748,0.071-4.104,0.179V5.045c0-0.142-0.014-0.282-0.028-0.421 c-0.003-0.029-0.002-0.059-0.006-0.088c-0.029-0.231-0.084-0.456-0.152-0.676c-0.017-0.05-0.034-0.1-0.052-0.15 c-0.163-0.46-0.409-0.885-0.726-1.256c-0.032-0.037-0.063-0.074-0.096-0.109c-0.16-0.174-0.331-0.338-0.522-0.482 c-0.008-0.007-0.018-0.012-0.026-0.018c-0.125-0.094-0.254-0.183-0.392-0.262l-123.842-71.5c-1.238-0.715-2.763-0.715-4,0 l-123.841,71.5c-0.138,0.08-0.269,0.17-0.395,0.264c-0.008,0.005-0.016,0.01-0.023,0.015c-0.191,0.145-0.364,0.31-0.524,0.484 c-0.032,0.035-0.063,0.071-0.094,0.108c-0.316,0.371-0.562,0.794-0.725,1.254c-0.019,0.052-0.037,0.104-0.053,0.156 c-0.068,0.218-0.123,0.441-0.152,0.671c-0.004,0.033-0.003,0.065-0.007,0.098c-0.014,0.137-0.027,0.274-0.027,0.413v143 c0,1.429,0.762,2.75,2,3.464l123.841,71.5c0.121,0.069,0.247,0.127,0.373,0.184c0.031,0.014,0.059,0.031,0.09,0.044 c0.211,0.088,0.429,0.152,0.65,0.202c0.059,0.014,0.117,0.024,0.177,0.035c0.235,0.042,0.472,0.071,0.71,0.071 s0.475-0.029,0.71-0.071c0.06-0.011,0.119-0.022,0.178-0.035c0.22-0.051,0.438-0.113,0.648-0.201 c0.033-0.014,0.062-0.032,0.094-0.047c0.125-0.056,0.25-0.112,0.37-0.182l87.376-50.446c9.279,13.602,24.897,22.551,42.569,22.551 c28.397,0,51.5-23.102,51.5-51.498C258.945,115.217,235.842,92.113,207.445,92.113z M75.499-61.836L191.343,5.047l-53.921,31.13 L21.576-30.703L75.499-61.836z M71.499,212.616l-115.841-66.881V11.977L71.499,78.854V212.616z M75.499,71.926L-40.344,5.047 l53.919-31.131l115.845,66.88L75.499,71.926z M79.499,212.616V78.854l115.842-66.878v81.587 c-22.574,5.46-39.396,25.822-39.396,50.052c0,7.87,1.78,15.33,4.95,22.007L79.499,212.616z M207.445,187.113 c-23.986,0-43.5-19.513-43.5-43.498c0-23.987,19.514-43.502,43.5-43.502s43.5,19.515,43.5,43.502 C250.945,167.601,231.431,187.113,207.445,187.113z"/>
    <path fill="#27245C" d="M229.796,139.613h-18.352v-18.35c0-2.209-1.791-4-4-4s-4,1.791-4,4v18.35h-18.35c-2.209,0-4,1.791-4,4 s1.791,4,4,4h18.35v18.35c0,2.209,1.791,4,4,4s4-1.791,4-4v-18.35h18.352c2.209,0,4-1.791,4-4S232.005,139.613,229.796,139.613z"/>
  </g>
</svg>