<?xml version="1.0" encoding="utf-8"?>
<!-- Generator: Adobe Illustrator 14.0.0, SVG Export Plug-In . SVG Version: 6.00 Build 43363)  -->
<!DOCTYPE svg PUBLIC "-//W3C//DTD SVG 1.1//EN" "http://www.w3.org/Graphics/SVG/1.1/DTD/svg11.dtd">
<svg version="1.1" id="Layer_1" xmlns="http://www.w3.org/2000/svg" xmlns:xlink="http://www.w3.org/1999/xlink" x="0px" y="0px"
	 width="502px" height="107px" viewBox="0 0 502 107" enable-background="new 0 0 502 107" xml:space="preserve">
<g>
	<g>
		<path fill="#FFFFFF" d="M138.127,72.891V34.056h7.547v32.215h18.238v6.619H138.127z"/>
		<path fill="#FFFFFF" d="M189.651,73.164c-2.844,0-5.423-0.556-7.739-1.668c-2.316-1.111-4.303-2.588-5.961-4.431
			c-1.661-1.84-2.946-3.946-3.857-6.317c-0.912-2.37-1.367-4.794-1.367-7.274c0-2.589,0.483-5.07,1.45-7.439
			c0.965-2.371,2.296-4.467,3.992-6.291c1.695-1.824,3.71-3.272,6.044-4.348c2.333-1.076,4.867-1.615,7.602-1.615
			c2.809,0,5.369,0.576,7.685,1.723c2.316,1.15,4.294,2.654,5.935,4.513c1.641,1.86,2.917,3.976,3.829,6.346
			c0.911,2.37,1.367,4.777,1.367,7.218c0,2.59-0.474,5.061-1.421,7.412c-0.949,2.353-2.262,4.431-3.938,6.236
			c-1.678,1.804-3.684,3.245-6.017,4.32C194.921,72.627,192.386,73.164,189.651,73.164z M178.384,53.474
			c0,1.676,0.255,3.301,0.766,4.867c0.51,1.568,1.249,2.954,2.215,4.156c0.966,1.204,2.151,2.17,3.556,2.899
			c1.403,0.729,2.999,1.094,4.786,1.094c1.823,0,3.437-0.374,4.841-1.121c1.403-0.747,2.588-1.741,3.556-2.98
			c0.965-1.24,1.695-2.635,2.188-4.186c0.492-1.549,0.738-3.126,0.738-4.73c0-1.678-0.265-3.3-0.793-4.87
			c-0.528-1.566-1.276-2.953-2.242-4.157c-0.966-1.203-2.152-2.16-3.555-2.871c-1.404-0.71-2.981-1.066-4.731-1.066
			c-1.824,0-3.446,0.374-4.868,1.12c-1.421,0.749-2.607,1.734-3.556,2.955c-0.948,1.223-1.668,2.606-2.16,4.157
			C178.631,50.292,178.384,51.87,178.384,53.474z"/>
		<path fill="#FFFFFF" d="M238.033,73.164c-2.843,0-5.423-0.556-7.738-1.668c-2.316-1.111-4.304-2.588-5.962-4.431
			c-1.66-1.84-2.945-3.946-3.856-6.317c-0.912-2.37-1.367-4.794-1.367-7.274c0-2.589,0.483-5.07,1.449-7.439
			c0.965-2.371,2.297-4.467,3.993-6.291c1.696-1.824,3.71-3.272,6.044-4.348c2.333-1.076,4.868-1.615,7.603-1.615
			c2.808,0,5.369,0.576,7.686,1.723c2.315,1.15,4.293,2.654,5.933,4.513c1.642,1.86,2.919,3.976,3.832,6.346
			c0.91,2.37,1.368,4.777,1.368,7.218c0,2.59-0.477,5.061-1.422,7.412c-0.949,2.353-2.263,4.431-3.938,6.236
			c-1.679,1.804-3.686,3.245-6.019,4.32C243.303,72.627,240.768,73.164,238.033,73.164z M226.768,53.474
			c0,1.676,0.253,3.301,0.766,4.867c0.509,1.568,1.248,2.954,2.214,4.156c0.966,1.204,2.15,2.17,3.554,2.899
			c1.405,0.729,3.001,1.094,4.786,1.094c1.824,0,3.438-0.374,4.841-1.121c1.403-0.747,2.588-1.741,3.556-2.98
			c0.966-1.24,1.695-2.635,2.188-4.186c0.491-1.549,0.739-3.126,0.739-4.73c0-1.678-0.265-3.3-0.794-4.87
			c-0.529-1.566-1.277-2.953-2.243-4.157c-0.966-1.203-2.152-2.16-3.556-2.871c-1.405-0.71-2.979-1.066-4.731-1.066
			c-1.822,0-3.446,0.374-4.866,1.12c-1.423,0.749-2.609,1.734-3.557,2.955c-0.947,1.223-1.667,2.606-2.159,4.157
			C227.013,50.292,226.768,51.87,226.768,53.474z"/>
		<path fill="#FFFFFF" d="M269.845,72.891V34.056h14.901c1.785,0,3.436,0.374,4.951,1.12c1.513,0.749,2.817,1.732,3.91,2.955
			c1.095,1.221,1.95,2.606,2.573,4.157c0.619,1.55,0.928,3.108,0.928,4.676c0,1.64-0.293,3.237-0.876,4.786
			c-0.583,1.551-1.404,2.926-2.46,4.13c-1.059,1.203-2.335,2.17-3.827,2.898c-1.496,0.732-3.138,1.094-4.924,1.094h-7.627v13.019
			H269.845z M277.393,53.254h7.188c1.386,0,2.545-0.565,3.473-1.696c0.931-1.129,1.396-2.66,1.396-4.593
			c0-0.985-0.147-1.868-0.437-2.652c-0.292-0.786-0.674-1.45-1.147-1.999c-0.476-0.546-1.032-0.957-1.67-1.229
			c-0.637-0.273-1.284-0.411-1.941-0.411h-6.861V53.254z"/>
		<path fill="#FFFFFF" d="M307.037,53.2c0-2.37,0.43-4.712,1.285-7.029c0.857-2.315,2.105-4.385,3.748-6.209
			c1.642-1.822,3.644-3.298,6.016-4.43c2.371-1.129,5.07-1.695,8.095-1.695c3.574,0,6.663,0.783,9.272,2.351
			c2.607,1.57,4.548,3.612,5.824,6.126l-5.796,3.995c-0.513-1.094-1.132-2.015-1.862-2.763c-0.729-0.749-1.511-1.34-2.35-1.778
			c-0.84-0.438-1.715-0.757-2.625-0.957c-0.913-0.2-1.807-0.301-2.68-0.301c-1.898,0-3.546,0.384-4.951,1.148
			c-1.403,0.766-2.569,1.759-3.5,2.982c-0.931,1.221-1.633,2.607-2.106,4.156c-0.473,1.55-0.711,3.091-0.711,4.623
			c0,1.714,0.275,3.363,0.821,4.95c0.546,1.587,1.322,2.981,2.323,4.184c1.004,1.205,2.207,2.17,3.611,2.9
			c1.404,0.729,2.946,1.094,4.622,1.094c0.875,0,1.788-0.109,2.734-0.329c0.95-0.219,1.853-0.566,2.708-1.039
			c0.857-0.475,1.651-1.085,2.38-1.833c0.729-0.749,1.313-1.65,1.75-2.708l6.18,3.554c-0.62,1.459-1.501,2.746-2.652,3.857
			c-1.147,1.112-2.441,2.051-3.883,2.817c-1.44,0.767-2.981,1.35-4.621,1.75c-1.642,0.401-3.248,0.602-4.813,0.602
			c-2.771,0-5.305-0.583-7.604-1.751c-2.298-1.166-4.277-2.689-5.934-4.565c-1.661-1.88-2.955-4.012-3.886-6.401
			C307.503,58.114,307.037,55.681,307.037,53.2z"/>
		<path fill="#FFFFFF" d="M357.5,34.056l9.572,17.143l9.736-17.143h8.15l-14.115,23.708v15.127h-7.493V57.654l-14.056-23.598H357.5z
			"/>
		<path fill="#FFFFFF" d="M391.28,53.2c0-2.37,0.427-4.712,1.285-7.029c0.854-2.315,2.106-4.385,3.746-6.209
			c1.642-1.822,3.647-3.298,6.019-4.43c2.369-1.129,5.067-1.695,8.095-1.695c3.571,0,6.663,0.783,9.27,2.351
			c2.607,1.57,4.548,3.612,5.827,6.126l-5.799,3.995c-0.51-1.094-1.129-2.015-1.858-2.763c-0.729-0.749-1.514-1.34-2.353-1.778
			c-0.84-0.438-1.713-0.757-2.625-0.957c-0.913-0.2-1.805-0.301-2.681-0.301c-1.896,0-3.547,0.384-4.951,1.148
			c-1.403,0.766-2.57,1.759-3.5,2.982c-0.928,1.221-1.63,2.607-2.103,4.156c-0.476,1.55-0.711,3.091-0.711,4.623
			c0,1.714,0.272,3.363,0.818,4.95c0.55,1.587,1.322,2.981,2.326,4.184c1.001,1.205,2.207,2.17,3.611,2.9
			c1.4,0.729,2.942,1.094,4.621,1.094c0.876,0,1.785-0.109,2.734-0.329c0.946-0.219,1.85-0.566,2.708-1.039
			c0.857-0.475,1.648-1.085,2.377-1.833c0.729-0.749,1.315-1.65,1.753-2.708l6.18,3.554c-0.619,1.459-1.505,2.746-2.652,3.857
			c-1.151,1.112-2.445,2.051-3.887,2.817c-1.439,0.767-2.978,1.35-4.62,1.75c-1.638,0.401-3.245,0.602-4.813,0.602
			c-2.771,0-5.306-0.583-7.604-1.751c-2.295-1.166-4.273-2.689-5.934-4.565c-1.661-1.88-2.955-4.012-3.882-6.401
			C391.743,58.114,391.28,55.681,391.28,53.2z"/>
		<path fill="#FFFFFF" d="M438.184,72.891V34.056h7.548v32.215h18.238v6.619H438.184z"/>
		<path fill="#FFFFFF" d="M501,66.271v6.619h-25.405V34.056H501v6.618h-17.855v9.353h13.228v6.127h-13.228v10.118H501z"/>
	</g>
	<path fill="#FFFFFF" d="M96.648,10.353C84.85-1.447,66.057-2.078,53.5,8.441c-12.556-10.52-31.348-9.886-43.147,1.911
		C-1.446,22.151-2.077,40.942,8.441,53.5c-10.52,12.558-9.887,31.35,1.912,43.148c11.799,11.797,30.591,12.431,43.148,1.911
		c12.557,10.52,31.348,9.886,43.146-1.911c11.798-11.799,12.431-30.589,1.912-43.147C109.08,40.943,108.446,22.151,96.648,10.353z
		 M14.343,14.344C23.957,4.73,39.147,4.1,49.495,12.446c-0.044,0.052-0.089,0.103-0.133,0.153L12.6,49.361
		c-0.051,0.043-0.102,0.089-0.153,0.134C4.1,39.146,4.73,23.955,14.343,14.344z M14.342,92.66
		C4.729,83.046,4.1,67.855,12.447,57.506c0.051,0.043,0.101,0.088,0.151,0.13l36.766,36.767c0.042,0.051,0.088,0.101,0.13,0.152
		C39.147,102.902,23.956,102.272,14.342,92.66z M53.501,90.551c-0.002,0.001-0.002,0.003-0.004,0.005L16.445,53.504
		c0.001-0.001,0.003-0.003,0.004-0.004c-0.001,0-0.003-0.002-0.004-0.003l37.052-37.052c0.001,0.002,0.002,0.004,0.003,0.005
		c0.001-0.001,0.002-0.003,0.004-0.005l37.051,37.052c-0.001,0.001-0.003,0.003-0.004,0.004c0.001,0,0.003,0.002,0.004,0.003
		L53.504,90.556C53.503,90.554,53.501,90.552,53.501,90.551z M92.657,92.658c-9.613,9.613-24.803,10.243-35.15,1.897
		c0.043-0.052,0.088-0.103,0.132-0.155L94.4,57.64c0.053-0.043,0.103-0.088,0.154-0.132C102.9,67.855,102.271,83.044,92.657,92.658z
		 M94.555,49.496c-0.052-0.044-0.102-0.089-0.153-0.132L57.637,12.598c-0.042-0.051-0.088-0.101-0.13-0.152
		c10.348-8.347,25.538-7.716,35.151,1.898C102.271,23.955,102.901,39.146,94.555,49.496z"/>
</g>
</svg>
