<?xml version="1.0" encoding="utf-8"?>
<!-- Generator: Adobe Illustrator 25.2.3, SVG Export Plug-In . SVG Version: 6.00 Build 0)  -->
<svg version="1.1" id="LOGO" xmlns="http://www.w3.org/2000/svg" xmlns:xlink="http://www.w3.org/1999/xlink" x="0px" y="0px"
	 viewBox="0 0 321 52" style="enable-background:new 0 0 321 52;" xml:space="preserve">
<style type="text/css">
	.st0{fill:#0FAD8A;}
</style>
<g>
	<g>
		<g>
			<path class="st0" d="M107.92,35.04V17.08h3.85v14.38h4.88c1.63,0,2.95,1.32,2.95,2.95v0.63H107.92z"/>
			<path class="st0" d="M174.04,29h-2.25v3.09c0,1.63-1.32,2.95-2.95,2.95h-0.9V17.08h6.04c4.33,0,6.68,2.62,6.68,6.09
				S177.78,29,174.04,29z M173.78,20.66h-1.98v4.76h2.01c1.42,0,2.81-0.59,2.81-2.43C176.61,21.81,175.91,20.66,173.78,20.66z"/>
			<path class="st0" d="M195.3,20.32c-3.66,0-5.91,2.86-5.91,5.75c0,3.47,2.83,5.75,5.93,5.75c0.82,0,1.63-0.15,2.41-0.41
				c1.59-0.55,3.26,0.55,3.26,2.23v0.11c-1.74,1.04-4.12,1.68-5.96,1.68c-5.29,0-9.73-4.3-9.73-9.35c0-5.35,4.46-9.36,9.76-9.36
				c2.03,0,4.41,0.62,5.96,1.39v4.22C199.07,21.04,197.1,20.32,195.3,20.32z"/>
			<path class="st0" d="M215.33,27.13v7.91h-3.85v-7.91l-6.36-10.05h4.44l3.85,6.41l3.85-6.41h4.44L215.33,27.13z"/>
			<path class="st0" d="M234.23,20.32c-3.66,0-5.91,2.86-5.91,5.75c0,3.47,2.83,5.75,5.93,5.75c0.82,0,1.63-0.15,2.41-0.41
				c1.59-0.55,3.26,0.55,3.26,2.23v0.11c-1.74,1.04-4.12,1.68-5.96,1.68c-5.29,0-9.73-4.3-9.73-9.35c0-5.35,4.46-9.36,9.76-9.36
				c2.03,0,4.41,0.62,5.96,1.39v4.22C238,21.04,236.02,20.32,234.23,20.32z"/>
			<path class="st0" d="M246.64,35.04V17.08h3.85v14.38h4.88c1.63,0,2.95,1.32,2.95,2.95v0.63H246.64z"/>
			<path class="st0" d="M263.42,35.04V17.08h12.08v3.58h-8.23v3.37h5.85v3.58h-5.85v3.85h8.23v3.58H263.42z"/>
			<path class="st0" d="M153.65,16.67c-4.97,0-8.45,3.84-8.45,9.35c0,5.5,3.47,9.35,8.45,9.35c4.97,0,8.45-3.84,8.45-9.35
				C162.1,20.51,158.63,16.67,153.65,16.67z M153.65,31.92c-3.09,0-5.01-2.26-5.01-5.9c0-3.64,1.92-5.9,5.01-5.9s5.01,2.26,5.01,5.9
				C158.66,29.66,156.74,31.92,153.65,31.92z"/>
			<path class="st0" d="M131.55,16.67c-4.97,0-8.45,3.84-8.45,9.35c0,5.5,3.47,9.35,8.45,9.35c4.97,0,8.45-3.84,8.45-9.35
				C140,20.51,136.53,16.67,131.55,16.67z M131.55,31.92c-3.09,0-5.01-2.26-5.01-5.9c0-3.64,1.92-5.9,5.01-5.9
				c3.09,0,5.01,2.26,5.01,5.9C136.56,29.66,134.64,31.92,131.55,31.92z"/>
		</g>
		<path class="st0" d="M69.67,5.25C63.89,0.41,55.24,0.7,49.81,6.13c-5.43,5.43-5.72,14.08-0.88,19.87
			c-4.84,5.78-4.55,14.43,0.88,19.87c5.43,5.43,14.08,5.72,19.87,0.88c5.78,4.84,14.43,4.55,19.87-0.88
			c5.43-5.43,5.72-14.08,0.88-19.87c4.84-5.78,4.55-14.43-0.88-19.87C84.11,0.7,75.45,0.41,69.67,5.25z M86.73,26
			C86.73,26,86.73,26,86.73,26C86.73,26,86.73,26,86.73,26L69.67,43.06c0,0,0,0,0,0c0,0,0,0,0,0L52.61,26c0,0,0,0,0,0c0,0,0,0,0,0
			L69.67,8.94c0,0,0,0,0,0c0,0,0,0,0,0L86.73,26z M51.64,7.97c4.43-4.43,11.42-4.72,16.18-0.87c-0.02,0.02-0.04,0.05-0.06,0.07
			L50.84,24.09c-0.02,0.02-0.05,0.04-0.07,0.06C46.93,19.39,47.22,12.4,51.64,7.97z M51.64,44.03c-4.43-4.43-4.72-11.42-0.87-16.18
			c0.02,0.02,0.05,0.04,0.07,0.06l16.93,16.93c0.02,0.02,0.04,0.05,0.06,0.07C63.06,48.74,56.07,48.45,51.64,44.03z M87.7,44.03
			c-4.43,4.43-11.42,4.72-16.18,0.87c0.02-0.02,0.04-0.05,0.06-0.07L88.5,27.91c0.02-0.02,0.05-0.04,0.07-0.06
			C92.42,32.61,92.13,39.6,87.7,44.03z M88.57,24.16c-0.02-0.02-0.05-0.04-0.07-0.06L71.58,7.17c-0.02-0.02-0.04-0.05-0.06-0.07
			c4.76-3.84,11.76-3.55,16.18,0.87C92.13,12.4,92.42,19.39,88.57,24.16z"/>
	</g>
</g>
</svg>
