<?xml version="1.0" encoding="utf-8"?>
<!-- Generator: Adobe Illustrator 14.0.0, SVG Export Plug-In . SVG Version: 6.00 Build 43363)  -->
<!DOCTYPE svg PUBLIC "-//W3C//DTD SVG 1.1//EN" "http://www.w3.org/Graphics/SVG/1.1/DTD/svg11.dtd">
<svg version="1.1" id="Layer_1" xmlns="http://www.w3.org/2000/svg" xmlns:xlink="http://www.w3.org/1999/xlink" x="0px" y="0px"
	 width="105px" height="105px" viewBox="0 0 105 105" enable-background="new 0 0 105 105" xml:space="preserve">
<path fill="#FFFFFF" d="M94.826,10.174C83.252-1.4,64.817-2.02,52.5,8.3C40.183-2.02,21.749-1.398,10.174,10.174
	C-1.399,21.748-2.019,40.182,8.299,52.5c-10.32,12.318-9.698,30.753,1.875,42.327c11.574,11.572,30.008,12.194,42.326,1.875
	c12.317,10.319,30.751,9.698,42.325-1.875c11.573-11.574,12.194-30.007,1.875-42.326C107.021,40.183,106.399,21.748,94.826,10.174z
	 M14.088,14.089c9.43-9.43,24.332-10.048,34.482-1.861c-0.043,0.051-0.087,0.101-0.13,0.15L12.378,48.44
	c-0.05,0.042-0.1,0.087-0.15,0.131C4.04,38.42,4.659,23.517,14.088,14.089z M14.088,90.914c-9.43-9.43-10.048-24.333-1.86-34.484
	c0.05,0.042,0.099,0.086,0.149,0.127l36.066,36.067c0.041,0.05,0.085,0.1,0.127,0.149C38.42,100.961,23.518,100.343,14.088,90.914z
	 M52.5,88.845c-0.002,0.001-0.002,0.003-0.004,0.005L16.15,52.504c0.001-0.001,0.003-0.003,0.004-0.004
	c-0.001,0-0.003-0.002-0.004-0.003l36.346-36.346c0.001,0.002,0.002,0.004,0.003,0.005c0.001-0.001,0.002-0.003,0.004-0.005
	l36.346,36.346c-0.001,0.001-0.003,0.003-0.004,0.004c0.001,0,0.003,0.002,0.004,0.003L52.503,88.851
	C52.502,88.848,52.501,88.846,52.5,88.845z M90.911,90.912c-9.43,9.43-24.331,10.047-34.481,1.861
	c0.042-0.051,0.086-0.101,0.129-0.152L92.62,56.561c0.052-0.042,0.102-0.087,0.151-0.129
	C100.959,66.581,100.341,81.482,90.911,90.912z M92.772,48.572c-0.05-0.043-0.1-0.087-0.15-0.129L56.557,12.377
	c-0.042-0.05-0.085-0.1-0.127-0.149c10.15-8.188,25.051-7.569,34.481,1.861C100.341,23.517,100.959,38.42,92.772,48.572z"/>
</svg>
