<?xml version="1.0" encoding="UTF-8" standalone="no" ?>
<!DOCTYPE svg PUBLIC "-//W3C//DTD SVG 1.1//EN" "http://www.w3.org/Graphics/SVG/1.1/DTD/svg11.dtd">
<svg xmlns="http://www.w3.org/2000/svg" xmlns:xlink="http://www.w3.org/1999/xlink" version="1.1" width="100" height="100" viewBox="0 0 100 100" xml:space="preserve">
<desc>Created with Fabric.js 5.3.0</desc>
<defs>
</defs>
<g transform="matrix(0.1950671325 0 0 0.1950671325 49.9371859296 49.9371859296)" id="YEsILhaVotJ6C9_1A0soN"  >
<path style="stroke: rgb(211,17,105); stroke-width: 3; stroke-dasharray: none; stroke-linecap: butt; stroke-dashoffset: 0; stroke-linejoin: miter; stroke-miterlimit: 4; fill: none; fill-rule: nonzero; opacity: 1;" vector-effect="non-scaling-stroke"  transform=" translate(0, 0)" d="M 185.7 136.1 L 25 228.89999999999998 C 9.5 237.79999999999998 -9.5 237.79999999999998 -25 228.89999999999998 L -185.7 136.09999999999997 C -201.2 127.19999999999996 -210.7 110.69999999999996 -210.7 92.79999999999997 L -210.7 -92.80000000000003 C -210.7 -110.70000000000002 -201.2 -127.20000000000002 -185.7 -136.10000000000002 L -25 -228.90000000000003 C -9.5 -237.80000000000004 9.5 -237.80000000000004 25 -228.90000000000003 L 185.7 -136.10000000000002 C 201.2 -127.20000000000002 210.7 -110.70000000000002 210.7 -92.80000000000003 L 210.7 92.79999999999997 C 210.7 110.59999999999997 201.2 127.19999999999996 185.7 136.09999999999997 z" stroke-linecap="round" />
</g>
<g transform="matrix(0.1950671325 0 0 0.1950671325 49.9469392862 49.9361309237)" id="5MjQRC3PkC5hb3wnC6DbY"  >
<path style="stroke: rgb(255,255,255); stroke-width: 0; stroke-dasharray: none; stroke-linecap: butt; stroke-dashoffset: 0; stroke-linejoin: miter; stroke-miterlimit: 4; fill: rgb(39,36,92); fill-rule: nonzero; opacity: 1;" vector-effect="non-scaling-stroke"  transform=" translate(-256.05, -255.9945915754)" d="M 330 335.3 C 330.7 336.40000000000003 330.5 337.40000000000003 330.5 338.3 C 330.5 350.7 330.5 363.1 330.6 375.5 C 330.6 377.3 330.3 378.4 328.3 379.3 C 320.40000000000003 383.1 312.40000000000003 386.5 303.90000000000003 388.8 C 298.20000000000005 390.40000000000003 292.40000000000003 391.3 286.6 392.1 C 281.8 392.70000000000005 277 392.70000000000005 272.20000000000005 392.6 C 265.80000000000007 392.40000000000003 259.40000000000003 391.5 253.10000000000005 389.90000000000003 C 246.30000000000004 388.20000000000005 239.80000000000004 385.8 234.00000000000006 382.00000000000006 C 223.50000000000006 375.20000000000005 215.20000000000005 366.40000000000003 211.00000000000006 354.1000000000001 C 209.10000000000005 348.4000000000001 208.90000000000006 342.7000000000001 208.70000000000005 337.00000000000006 C 207.90000000000003 306.50000000000006 208.30000000000004 276.00000000000006 208.10000000000005 245.40000000000006 C 208.10000000000005 241.90000000000006 207.90000000000006 238.40000000000006 208.10000000000005 234.90000000000006 C 208.20000000000005 232.80000000000007 207.60000000000005 232.10000000000005 205.40000000000006 232.10000000000005 C 198.50000000000006 232.20000000000005 191.60000000000005 232.00000000000006 184.70000000000007 232.20000000000005 C 182.30000000000007 232.30000000000004 181.50000000000009 231.70000000000005 181.50000000000009 229.10000000000005 C 181.70000000000007 218.10000000000005 181.60000000000008 207.00000000000006 181.60000000000008 196.00000000000006 C 181.60000000000008 193.70000000000005 181.80000000000007 192.50000000000006 184.60000000000008 191.50000000000006 C 190.10000000000008 189.50000000000006 195.20000000000007 186.40000000000006 199.80000000000007 182.80000000000007 C 210.00000000000006 174.90000000000006 217.70000000000007 165.10000000000008 222.60000000000008 153.20000000000007 C 226.60000000000008 143.40000000000006 228.9000000000001 133.20000000000007 230.20000000000007 122.70000000000007 C 230.40000000000006 121.20000000000007 230.70000000000007 120.20000000000007 232.50000000000009 120.10000000000008 C 237.8000000000001 119.80000000000008 243.00000000000009 118.90000000000008 248.3000000000001 119.60000000000008 C 253.3000000000001 120.20000000000007 258.30000000000007 120.10000000000008 263.30000000000007 120.10000000000008 C 265.6000000000001 120.10000000000008 265.4000000000001 121.40000000000008 265.4000000000001 122.90000000000008 C 265.5000000000001 139.70000000000007 265.5000000000001 156.50000000000009 265.6000000000001 173.30000000000007 C 265.6000000000001 177.60000000000008 265.7000000000001 181.90000000000006 265.50000000000006 186.20000000000007 C 265.40000000000003 188.30000000000007 266.00000000000006 188.90000000000006 268.1000000000001 188.90000000000006 C 285.4000000000001 188.80000000000007 302.7000000000001 188.90000000000006 320.1000000000001 188.80000000000007 C 322.7000000000001 188.80000000000007 323.30000000000007 189.70000000000007 323.30000000000007 192.00000000000006 C 323.20000000000005 204.40000000000006 323.20000000000005 216.80000000000007 323.30000000000007 229.20000000000005 C 323.30000000000007 231.50000000000006 322.70000000000005 232.30000000000004 320.20000000000005 232.30000000000004 C 303.00000000000006 232.20000000000005 285.70000000000005 232.30000000000004 268.50000000000006 232.20000000000005 C 266.30000000000007 232.20000000000005 265.40000000000003 232.50000000000006 265.40000000000003 235.10000000000005 C 265.6 261.1 265.6 287.1 265.6 313.20000000000005 C 265.6 318.70000000000005 265.90000000000003 324.20000000000005 266.90000000000003 329.50000000000006 C 268.40000000000003 337.90000000000003 274.1 343.00000000000006 281.90000000000003 345.70000000000005 C 292.6 349.50000000000006 303.1 347.90000000000003 313.50000000000006 344.40000000000003 C 319.4 342.3 324.8 339 330 335.3 z" stroke-linecap="round" />
</g>
<g transform="matrix(1 0 0 1 49.8233215548 50.5300353357)" id="kcJNlHQ2n1HRh1INogwML"  >
<path style="stroke: rgb(211,17,105); stroke-width: 3; stroke-dasharray: none; stroke-linecap: butt; stroke-dashoffset: 0; stroke-linejoin: miter; stroke-miterlimit: 4; fill: rgb(255,255,255); fill-opacity: 0; fill-rule: nonzero; opacity: 1;" vector-effect="non-scaling-stroke"  transform=" translate(0, 0)" d="M -40.10601 -22.4735 L 40.10600000000001 22.4735" stroke-linecap="round" />
</g>
</svg>